<?xml version="1.0" encoding="utf-8"?>
<!-- Generator: Adobe Illustrator 16.0.0, SVG Export Plug-In . SVG Version: 6.00 Build 0)  -->
<!DOCTYPE svg PUBLIC "-//W3C//DTD SVG 1.1//EN" "http://www.w3.org/Graphics/SVG/1.1/DTD/svg11.dtd">
<svg version="1.1" xmlns="http://www.w3.org/2000/svg" xmlns:xlink="http://www.w3.org/1999/xlink" x="0px" y="0px" width="612px"
	 height="792px" viewBox="0 0 612 792" enable-background="new 0 0 612 792" xml:space="preserve">
<g id="Background">
</g>
<g id="Theme_Set">
</g>
<g id="Design_Elements">
	<g>
		<path fill="#7F6A55" d="M439.699,383.549c-51.043,0-92.419,41.376-92.419,92.417c0,51.043,41.376,92.42,92.419,92.42
			c51.041,0,92.417-41.377,92.417-92.42C532.116,424.926,490.74,383.549,439.699,383.549z M439.699,505.737
			c-16.446,0-29.768-13.327-29.768-29.767c0-16.44,13.321-29.769,29.768-29.769c16.435,0,29.768,13.328,29.768,29.769
			C469.467,492.41,456.134,505.737,439.699,505.737z"/>
		<g>
			<path fill="#FBFBF7" d="M513.715,445.321c-4.277-10.295,2.042-18.995-11.43-31.93c-13.466-12.931-21.637-7.157-31.938-11.436
				c-9.94-4.134-10.44-14.525-30.641-14.525c-20.198,0-20.699,10.392-30.645,14.525c-10.295,4.278-17.721-3.566-31.926,11.436
				c-14.205,15.003-7.158,21.635-11.441,31.932c-4.132,9.943-15.108,11.549-14.525,30.643c0.588,19.098,10.394,20.704,14.525,30.646
				c4.283,10.295,1.426,21.779,11.435,31.932c10.011,10.152,21.638,7.155,31.933,11.435c9.945,4.137,10.958,14.526,30.645,14.526
				c19.688,0,20.7-10.39,30.641-14.526c10.301-4.279,18.21-1.012,31.938-11.435c13.728-10.42,7.152-21.637,11.43-31.928
				c4.133-9.946,14.841-13.243,14.526-30.65C527.926,458.563,517.848,455.267,513.715,445.321z M471.127,488.979
				c-1.815,4.367-1.561,10.256-4.853,13.553c-3.3,3.297-9.189,3.038-13.56,4.854c-4.219,1.755-8.16,6.167-13.008,6.167
				c-4.847,0-8.787-4.412-13.012-6.167c-4.37-1.815-10.261-1.557-13.553-4.854c-3.301-3.297-3.039-9.186-4.855-13.557
				c-1.756-4.219-6.167-8.159-6.167-13.01c0-4.847,4.411-8.786,6.167-13.009c1.816-4.371,1.555-10.257,4.855-13.557
				c3.292-3.297,9.183-3.038,13.553-4.854c4.225-1.755,8.165-6.165,13.012-6.165c4.848,0,8.789,4.41,13.008,6.165
				c4.37,1.815,10.26,1.557,13.56,4.854c3.292,3.296,3.037,9.186,4.853,13.557c1.752,4.223,6.164,8.162,6.164,13.009
				C477.291,480.816,472.879,484.757,471.127,488.979z"/>
			<path fill="#FCEA92" d="M513.718,445.321c-4.278-10.295,2.037-18.995-11.43-31.93c-13.472-12.931-21.644-7.157-31.938-11.436
				c-9.944-4.134-10.445-14.525-30.645-14.525s-20.693,10.392-30.64,14.525c-10.294,4.278-17.727-3.566-31.933,11.436
				c-14.205,15.003-7.158,21.635-11.441,31.932c-4.131,9.943-15.107,11.549-14.52,30.643c0.583,19.098,10.389,20.704,14.52,30.646
				c4.283,10.295,1.427,21.779,11.436,31.932c10.011,10.152,21.645,7.155,31.938,11.435c9.939,4.137,10.952,14.526,30.64,14.526
				s20.7-10.39,30.645-14.526c10.295-4.279,18.204-1.012,31.934-11.435c13.729-10.42,7.156-21.637,11.435-31.928
				c4.132-9.946,14.834-13.243,14.521-30.65C527.923,458.563,517.85,455.267,513.718,445.321z M420.804,409.274
				c0.559-1.548,2.264-2.354,3.811-1.798l12.972,4.655c1.555,0.557,2.357,2.264,1.799,3.812c-0.553,1.549-2.259,2.354-3.811,1.799
				l-12.973-4.656C421.053,412.53,420.25,410.826,420.804,409.274z M384.379,457.832c-0.85-1.411-0.396-3.24,1.012-4.09
				l11.809-7.111c1.408-0.851,3.241-0.396,4.091,1.016c0.851,1.407,0.396,3.238-1.019,4.091l-11.802,7.108
				C387.055,459.695,385.229,459.241,384.379,457.832z M403.025,529.154l-13.781,0.271c-1.648,0.032-3.009-1.277-3.038-2.922
				c-0.03-1.644,1.274-3.005,2.921-3.035l13.774-0.273c1.647-0.034,3.01,1.277,3.044,2.922
				C405.976,527.758,404.665,529.118,403.025,529.154z M466.271,502.532c-3.295,3.297-9.184,3.038-13.555,4.854
				c-4.219,1.755-8.164,6.167-13.012,6.167s-8.787-4.412-13.007-6.167c-4.37-1.815-10.26-1.557-13.56-4.854
				c-3.294-3.297-3.038-9.186-4.854-13.557c-1.752-4.219-6.162-8.159-6.162-13.01c0-4.847,4.41-8.786,6.162-13.009
				c1.815-4.371,1.56-10.257,4.854-13.557c3.3-3.297,9.189-3.038,13.56-4.854c4.22-1.755,8.159-6.165,13.007-6.165
				s8.787,4.41,13.012,6.165c4.371,1.815,10.26,1.557,13.555,4.854c3.299,3.296,3.037,9.186,4.853,13.557
				c1.758,4.223,6.169,8.162,6.169,13.009c0,4.851-4.411,8.791-6.169,13.014C469.309,493.347,469.57,499.235,466.271,502.532z
				 M494.49,526.529c-0.553,1.549-2.258,2.354-3.812,1.799l-12.973-4.657c-1.547-0.556-2.351-2.26-1.798-3.812
				c0.56-1.548,2.264-2.354,3.812-1.798l12.972,4.656C494.246,523.273,495.049,524.981,494.49,526.529z M498.471,457.301
				c-0.559,1.547-2.264,2.354-3.812,1.798l-12.971-4.655c-1.554-0.56-2.357-2.264-1.799-3.812c0.553-1.548,2.259-2.354,3.812-1.798
				l12.971,4.655C498.221,454.045,499.023,455.749,498.471,457.301z"/>
			<path fill="#78DDA0" d="M513.718,445.321c-4.278-10.295,2.037-18.995-11.43-31.93c-13.472-12.931-21.644-7.157-31.938-11.436
				c-9.944-4.134-10.445-14.525-30.645-14.525s-20.693,10.392-30.64,14.525c-10.294,4.278-17.727-3.566-31.933,11.436
				c-14.205,15.003-7.158,21.635-11.441,31.932c-4.131,9.943-15.107,11.549-14.52,30.643c0.583,19.098,10.389,20.704,14.52,30.646
				c4.283,10.295,1.427,21.779,11.436,31.932c10.011,10.152,21.645,7.155,31.938,11.435c9.939,4.137,10.952,14.526,30.64,14.526
				s20.7-10.39,30.645-14.526c10.295-4.279,18.204-1.012,31.934-11.435c13.729-10.42,7.156-21.637,11.435-31.928
				c4.132-9.946,14.834-13.243,14.521-30.65C527.923,458.563,517.85,455.267,513.718,445.321z M487.105,418.4
				c1.529-0.595,3.259,0.165,3.852,1.702l4.994,12.844c0.594,1.533-0.17,3.261-1.699,3.854c-1.537,0.597-3.26-0.163-3.859-1.696
				l-4.987-12.846C484.807,420.724,485.568,418.999,487.105,418.4z M420.804,409.274c0.559-1.548,2.264-2.354,3.811-1.798
				l12.972,4.655c1.555,0.557,2.357,2.264,1.799,3.812c-0.553,1.549-2.259,2.354-3.811,1.799l-12.973-4.656
				C421.053,412.53,420.25,410.826,420.804,409.274z M388.371,420.358c1.029-1.282,2.904-1.49,4.189-0.46l10.755,8.616
				c1.286,1.029,1.49,2.906,0.46,4.189c-1.029,1.283-2.904,1.49-4.185,0.463l-10.754-8.619
				C387.549,423.521,387.346,421.645,388.371,420.358z M385.391,453.742l11.809-7.111c1.408-0.851,3.241-0.396,4.091,1.016
				c0.851,1.407,0.396,3.238-1.019,4.091l-11.802,7.108c-1.415,0.85-3.241,0.396-4.091-1.014
				C383.529,456.421,383.983,454.592,385.391,453.742z M383.873,506.271c-0.693-1.496-0.041-3.264,1.454-3.951l12.513-5.776
				c1.496-0.689,3.27-0.034,3.956,1.458c0.687,1.496,0.036,3.265-1.454,3.952l-12.518,5.775
				C386.334,508.42,384.56,507.768,383.873,506.271z M403.025,529.154l-13.781,0.271c-1.648,0.032-3.009-1.277-3.038-2.922
				c-0.03-1.644,1.274-3.005,2.921-3.035l13.774-0.273c1.647-0.034,3.01,1.277,3.044,2.922
				C405.976,527.758,404.665,529.118,403.025,529.154z M460.62,542.361l-12.243,6.332c-1.462,0.759-3.26,0.18-4.017-1.279
				c-0.757-1.463-0.18-3.257,1.28-4.014l12.238-6.331c1.461-0.757,3.26-0.185,4.016,1.277
				C462.652,539.807,462.081,541.605,460.62,542.361z M466.271,502.532c-3.295,3.297-9.184,3.038-13.555,4.854
				c-4.219,1.755-8.164,6.167-13.012,6.167s-8.787-4.412-13.007-6.167c-4.37-1.815-10.26-1.557-13.56-4.854
				c-3.294-3.297-3.038-9.186-4.854-13.557c-1.752-4.219-6.162-8.159-6.162-13.01c0-4.847,4.41-8.786,6.162-13.009
				c1.815-4.371,1.56-10.257,4.854-13.557c3.3-3.297,9.189-3.038,13.56-4.854c4.22-1.755,8.159-6.165,13.007-6.165
				s8.787,4.41,13.012,6.165c4.371,1.815,10.26,1.557,13.555,4.854c3.299,3.296,3.037,9.186,4.853,13.557
				c1.758,4.223,6.169,8.162,6.169,13.009c0,4.851-4.411,8.791-6.169,13.014C469.309,493.347,469.57,499.235,466.271,502.532z
				 M494.49,526.529c-0.553,1.549-2.258,2.354-3.812,1.799l-12.973-4.657c-1.547-0.556-2.351-2.26-1.798-3.812
				c0.56-1.548,2.264-2.354,3.812-1.798l12.972,4.656C494.246,523.273,495.049,524.981,494.49,526.529z M498.471,457.301
				c-0.559,1.547-2.264,2.354-3.812,1.798l-12.971-4.655c-1.554-0.56-2.357-2.264-1.799-3.812c0.553-1.548,2.259-2.354,3.812-1.798
				l12.971,4.655C498.221,454.045,499.023,455.749,498.471,457.301z M510.599,483.328l-7.856-11.325
				c-0.938-1.35-0.6-3.205,0.75-4.146c1.356-0.937,3.207-0.602,4.144,0.748l7.862,11.328c0.932,1.35,0.6,3.212-0.756,4.146
				C513.392,485.015,511.535,484.681,510.599,483.328z"/>
			<path fill="#FF8ABA" d="M513.718,445.321c-4.278-10.295,2.037-18.995-11.43-31.93c-13.472-12.931-21.644-7.157-31.938-11.436
				c-9.944-4.134-10.445-14.525-30.645-14.525s-20.693,10.392-30.64,14.525c-10.294,4.278-17.727-3.566-31.933,11.436
				c-14.205,15.003-7.158,21.635-11.441,31.932c-4.131,9.943-15.107,11.549-14.521,30.643c0.585,19.098,10.391,20.704,14.521,30.646
				c4.283,10.295,1.427,21.779,11.436,31.932c10.011,10.152,21.645,7.155,31.938,11.435c9.939,4.137,10.952,14.526,30.64,14.526
				s20.7-10.39,30.645-14.526c10.295-4.279,18.204-1.012,31.934-11.435c13.729-10.42,7.156-21.637,11.435-31.928
				c4.132-9.946,14.834-13.243,14.521-30.65C527.923,458.563,517.85,455.267,513.718,445.321z M487.105,418.4
				c1.529-0.595,3.259,0.165,3.852,1.702l4.994,12.844c0.594,1.533-0.17,3.261-1.699,3.854c-1.537,0.597-3.26-0.163-3.859-1.696
				l-4.987-12.846C484.807,420.724,485.568,418.999,487.105,418.4z M454.439,427.927l11.414-7.727
				c1.361-0.921,3.211-0.562,4.136,0.8c0.92,1.362,0.565,3.214-0.796,4.136l-11.412,7.726c-1.369,0.922-3.219,0.563-4.139-0.798
				C452.717,430.702,453.072,428.849,454.439,427.927z M420.804,409.274c0.559-1.548,2.264-2.354,3.811-1.798l12.972,4.655
				c1.555,0.557,2.357,2.264,1.799,3.812c-0.553,1.549-2.259,2.354-3.811,1.799l-12.973-4.656
				C421.053,412.53,420.25,410.826,420.804,409.274z M388.371,420.358c1.029-1.282,2.904-1.49,4.189-0.46l10.755,8.616
				c1.286,1.029,1.49,2.906,0.46,4.189c-1.029,1.283-2.904,1.49-4.185,0.463l-10.754-8.619
				C387.549,423.521,387.346,421.645,388.371,420.358z M385.391,453.742l11.809-7.111c1.408-0.851,3.241-0.396,4.091,1.016
				c0.851,1.407,0.396,3.238-1.019,4.091l-11.802,7.108c-1.415,0.85-3.241,0.396-4.091-1.014
				C383.529,456.421,383.983,454.592,385.391,453.742z M381.702,486.031c-1.048,1.269-2.927,1.446-4.189,0.394l-10.61-8.793
				c-1.269-1.054-1.443-2.932-0.396-4.197c1.054-1.268,2.928-1.445,4.196-0.393l10.608,8.793
				C382.58,482.89,382.756,484.766,381.702,486.031z M383.873,506.271c-0.693-1.496-0.041-3.264,1.454-3.951l12.513-5.776
				c1.496-0.689,3.27-0.034,3.956,1.458c0.687,1.496,0.036,3.265-1.454,3.952l-12.518,5.775
				C386.334,508.42,384.56,507.768,383.873,506.271z M403.025,529.154l-13.781,0.271c-1.648,0.032-3.009-1.277-3.038-2.922
				c-0.03-1.644,1.274-3.005,2.921-3.035l13.774-0.273c1.647-0.034,3.01,1.277,3.044,2.922
				C405.976,527.758,404.665,529.118,403.025,529.154z M436.789,526.022l-8.799,10.609c-1.053,1.266-2.928,1.44-4.196,0.39
				s-1.444-2.926-0.39-4.192l8.794-10.609c1.053-1.269,2.928-1.439,4.195-0.392C437.662,522.882,437.838,524.755,436.789,526.022z
				 M460.62,542.361l-12.243,6.332c-1.462,0.759-3.26,0.18-4.017-1.279c-0.757-1.463-0.18-3.257,1.28-4.014l12.238-6.331
				c1.461-0.757,3.26-0.185,4.016,1.277C462.652,539.807,462.081,541.605,460.62,542.361z M466.271,502.532
				c-3.295,3.297-9.184,3.038-13.555,4.854c-4.219,1.755-8.164,6.167-13.012,6.167s-8.787-4.412-13.007-6.167
				c-4.37-1.815-10.26-1.557-13.56-4.854c-3.294-3.297-3.038-9.186-4.854-13.557c-1.752-4.219-6.162-8.159-6.162-13.01
				c0-4.847,4.41-8.786,6.162-13.009c1.815-4.371,1.56-10.257,4.854-13.557c3.3-3.297,9.189-3.038,13.56-4.854
				c4.22-1.755,8.159-6.165,13.007-6.165s8.787,4.41,13.012,6.165c4.371,1.815,10.26,1.557,13.555,4.854
				c3.299,3.296,3.037,9.186,4.853,13.557c1.758,4.223,6.169,8.162,6.169,13.009c0,4.851-4.411,8.791-6.169,13.014
				C469.309,493.347,469.57,499.235,466.271,502.532z M494.49,526.529c-0.553,1.549-2.258,2.354-3.812,1.799l-12.973-4.657
				c-1.547-0.556-2.351-2.26-1.798-3.812c0.56-1.548,2.264-2.354,3.812-1.798l12.972,4.656
				C494.246,523.273,495.049,524.981,494.49,526.529z M496.684,496.501l-12.809,5.084c-1.535,0.604-3.265-0.141-3.87-1.672
				c-0.611-1.529,0.134-3.262,1.671-3.866l12.809-5.086c1.53-0.609,3.259,0.14,3.864,1.67
				C498.953,494.162,498.209,495.89,496.684,496.501z M498.471,457.301c-0.559,1.547-2.264,2.354-3.812,1.798l-12.971-4.655
				c-1.554-0.56-2.357-2.264-1.799-3.812c0.553-1.548,2.259-2.354,3.812-1.798l12.971,4.655
				C498.221,454.045,499.023,455.749,498.471,457.301z M510.599,483.328l-7.856-11.325c-0.938-1.35-0.6-3.205,0.75-4.146
				c1.356-0.937,3.207-0.602,4.144,0.748l7.862,11.328c0.932,1.35,0.6,3.212-0.756,4.146
				C513.392,485.015,511.535,484.681,510.599,483.328z"/>
		</g>
	</g>
	<g>
		<path fill="#E1D0AB" d="M388.56,250.364c-1.491,2.056-3.519,3.695-5.811,4.797c-2.651,1.223-5.663,1.729-8.762,1.251
			c-3.396-0.506-6.313-2.115-8.55-4.38c-0.09,0.09-0.18,0.179-0.27,0.238c-1.458,1.43-3.219,2.563-5.124,3.278
			c-2.384,0.923-5.005,1.281-7.718,0.864c-4.826-0.745-8.791-3.636-11.025-7.568c-0.683-1.162-1.188-2.414-1.547-3.753
			c-1.643,0.833-3.43,1.371-5.305,1.549c-1.223,0.149-2.502,0.118-3.815-0.09c-8.312-1.251-14.032-8.908-12.901-17.192
			c-1.281,0.15-2.594,0.179-3.903-0.029c-7.926-1.193-13.556-8.253-13.049-16.12c0.028-0.447,0.086-0.864,0.147-1.311
			c0.179-1.163,0.477-2.234,0.865-3.278c-46.719,4.618-83.252,44.009-83.252,91.951c0,51.041,41.389,92.427,92.428,92.427
			c51.043,0,92.427-41.386,92.427-92.427C403.396,282.037,397.941,264.814,388.56,250.364z M340.736,300.57
			c0,16.447-13.32,29.767-29.768,29.767s-29.767-13.319-29.767-29.767c0-16.417,13.319-29.766,29.767-29.766
			S340.736,284.152,340.736,300.57z"/>
		<g>
			<path fill="#FBFBF7" d="M384.982,269.94c-2.115-5.095-1.609-9.803-2.233-14.779c-2.651,1.223-5.663,1.729-8.762,1.251
				c-3.396-0.506-6.313-2.115-8.55-4.38c-0.09,0.09-0.18,0.179-0.27,0.238c-1.458,1.43-3.219,2.563-5.124,3.278
				c-2.384,0.923-5.005,1.281-7.718,0.864c-4.826-0.745-8.791-3.636-11.025-7.568c-0.683-1.162-1.188-2.414-1.547-3.753
				c-1.643,0.833-3.43,1.371-5.305,1.549c-1.223,0.149-2.502,0.118-3.815-0.09c-8.312-1.251-14.032-8.908-12.901-17.192
				c-1.281,0.15-2.594,0.179-3.903-0.029c-7.926-1.193-13.556-8.253-13.049-16.12c-10.61,2.832-12.545,10.071-20.441,13.348
				c-10.31,4.291-17.729-3.545-31.94,11.441c-14.182,15.018-7.152,21.633-11.44,31.942c-4.112,9.951-15.107,11.531-14.512,30.63
				c0.596,19.099,10.399,20.708,14.512,30.66c4.288,10.28,1.427,21.781,11.44,31.912c10.01,10.161,21.631,7.182,31.94,11.442
				c9.951,4.141,10.965,14.541,30.63,14.541c19.694,0,20.709-10.399,30.661-14.541c10.279-4.261,18.204-1.015,31.94-11.442
				c13.705-10.398,7.152-21.632,11.412-31.912c4.143-9.952,14.84-13.258,14.541-30.66
				C399.194,283.169,389.125,279.891,384.982,269.94z M337.549,327.148c-3.309,3.307-9.179,3.038-13.559,4.856
				c-4.229,1.758-8.164,6.167-13.021,6.167c-4.827,0-8.788-4.41-12.991-6.167c-4.38-1.818-10.28-1.549-13.556-4.856
				c-3.309-3.308-3.039-9.177-4.856-13.558c-1.758-4.23-6.17-8.163-6.17-13.021c0-4.827,4.412-8.79,6.17-12.991
				c1.817-4.379,1.548-10.28,4.856-13.556c3.275-3.309,9.176-3.039,13.556-4.858c4.203-1.758,8.164-6.167,12.991-6.167
				c4.857,0,8.793,4.41,13.021,6.167c4.38,1.819,10.25,1.549,13.559,4.858c3.308,3.276,3.036,9.177,4.855,13.556
				c1.758,4.202,6.168,8.165,6.168,12.991c0,4.857-4.41,8.79-6.168,13.021C340.585,317.971,340.856,323.84,337.549,327.148z"/>
			<path fill="#FCEA92" d="M384.982,269.94c-2.115-5.095-1.609-9.803-2.233-14.779c-2.651,1.223-5.663,1.729-8.762,1.251
				c-3.396-0.506-6.313-2.115-8.55-4.38c-0.09,0.09-0.18,0.179-0.27,0.238c-1.458,1.43-3.219,2.563-5.124,3.278
				c-2.384,0.923-5.005,1.281-7.718,0.864c-4.826-0.745-8.791-3.636-11.025-7.568c-0.683-1.162-1.188-2.414-1.547-3.753
				c-1.643,0.833-3.43,1.371-5.305,1.549c-1.223,0.149-2.502,0.118-3.815-0.09c-8.312-1.251-14.032-8.908-12.901-17.192
				c-1.281,0.15-2.594,0.179-3.903-0.029c-7.926-1.193-13.556-8.253-13.049-16.12c-10.61,2.832-12.545,10.071-20.441,13.348
				c-10.31,4.291-17.729-3.545-31.94,11.441c-14.182,15.018-7.152,21.633-11.44,31.942c-4.112,9.951-15.107,11.531-14.512,30.63
				c0.596,19.099,10.399,20.708,14.512,30.66c4.288,10.28,1.427,21.781,11.44,31.912c10.01,10.161,21.631,7.182,31.94,11.442
				c9.951,4.141,10.965,14.541,30.63,14.541c19.694,0,20.709-10.399,30.661-14.541c10.279-4.261,18.204-1.015,31.94-11.442
				c13.705-10.398,7.152-21.632,11.412-31.912c4.143-9.952,14.84-13.258,14.541-30.66
				C399.194,283.169,389.125,279.891,384.982,269.94z M292.08,233.886c0.564-1.549,2.264-2.354,3.811-1.788l12.963,4.648
				c1.549,0.566,2.354,2.265,1.816,3.814c-0.564,1.55-2.264,2.354-3.811,1.787l-12.992-4.646
				C292.318,237.134,291.514,235.436,292.08,233.886z M256.65,278.342l11.83-7.091c1.4-0.864,3.25-0.417,4.08,1.013
				c0.865,1.4,0.391,3.218-1.011,4.082l-11.801,7.122c-1.429,0.834-3.247,0.387-4.112-1.013
				C254.803,281.023,255.251,279.206,256.65,278.342z M274.289,353.755l-13.763,0.268c-1.669,0.03-3.012-1.251-3.041-2.92
				c-0.028-1.638,1.28-3.008,2.922-3.008l13.764-0.298c1.64-0.029,3.012,1.282,3.04,2.92
				C277.24,352.356,275.931,353.727,274.289,353.755z M337.549,327.148c-3.309,3.307-9.179,3.038-13.559,4.856
				c-4.229,1.758-8.164,6.167-13.021,6.167c-4.827,0-8.788-4.41-12.991-6.167c-4.38-1.818-10.28-1.549-13.556-4.856
				c-3.309-3.308-3.039-9.177-4.856-13.558c-1.758-4.23-6.17-8.163-6.17-13.021c0-4.827,4.412-8.79,6.17-12.991
				c1.817-4.379,1.548-10.28,4.856-13.556c3.275-3.309,9.176-3.039,13.556-4.858c4.203-1.758,8.164-6.167,12.991-6.167
				c4.857,0,8.793,4.41,13.021,6.167c4.38,1.819,10.25,1.549,13.559,4.858c3.308,3.276,3.036,9.177,4.855,13.556
				c1.758,4.202,6.168,8.165,6.168,12.991c0,4.857-4.41,8.79-6.168,13.021C340.585,317.971,340.856,323.84,337.549,327.148z
				 M365.764,351.134c-0.564,1.549-2.264,2.354-3.814,1.817l-12.961-4.678c-1.546-0.537-2.352-2.266-1.818-3.814
				c0.568-1.55,2.267-2.354,3.814-1.788l12.992,4.647C365.525,347.886,366.331,349.584,365.764,351.134z M369.756,281.917
				c-0.565,1.55-2.264,2.354-3.812,1.788l-12.992-4.648c-1.548-0.565-2.354-2.265-1.787-3.814c0.534-1.549,2.265-2.354,3.812-1.787
				l12.964,4.647C369.489,278.671,370.295,280.368,369.756,281.917z"/>
			<path fill="#FF8ABA" d="M384.982,269.94c-2.115-5.095-1.609-9.803-2.233-14.779c-2.651,1.223-5.663,1.729-8.762,1.251
				c-3.396-0.506-6.313-2.115-8.55-4.38c-0.09,0.09-0.18,0.179-0.27,0.238l2.058,5.274c0.595,1.549-0.18,3.278-1.7,3.875
				c-1.549,0.594-3.248-0.179-3.874-1.7l-1.607-4.171c-2.384,0.923-5.005,1.281-7.718,0.864c-4.826-0.745-8.791-3.636-11.025-7.568
				c-0.683-1.162-1.188-2.414-1.547-3.753c-1.643,0.833-3.43,1.371-5.305,1.549c-1.223,0.149-2.502,0.118-3.815-0.09
				c-8.312-1.251-14.032-8.908-12.901-17.192c-1.281,0.15-2.594,0.179-3.903-0.029c-7.926-1.193-13.556-8.253-13.049-16.12
				c-10.61,2.832-12.545,10.071-20.441,13.348c-10.31,4.291-17.729-3.545-31.94,11.441c-14.182,15.018-7.152,21.633-11.44,31.942
				c-4.112,9.951-15.107,11.531-14.512,30.63c0.596,19.099,10.399,20.708,14.512,30.66c4.288,10.28,1.427,21.781,11.44,31.912
				c10.01,10.161,21.631,7.182,31.94,11.442c9.951,4.141,10.965,14.541,30.63,14.541c19.694,0,20.709-10.399,30.661-14.541
				c10.279-4.261,18.204-1.015,31.94-11.442c13.705-10.398,7.152-21.632,11.412-31.912c4.143-9.952,14.84-13.258,14.541-30.66
				C399.194,283.169,389.125,279.891,384.982,269.94z M292.08,233.886c0.564-1.549,2.264-2.354,3.811-1.788l12.963,4.648
				c1.549,0.566,2.354,2.265,1.816,3.814c-0.564,1.55-2.264,2.354-3.811,1.787l-12.992-4.646
				C292.318,237.134,291.514,235.436,292.08,233.886z M259.63,244.972c1.045-1.282,2.921-1.491,4.202-0.449l10.758,8.612
				c1.279,1.014,1.488,2.891,0.444,4.171c-1.012,1.282-2.889,1.49-4.17,0.477l-10.757-8.611
				C258.826,248.129,258.617,246.251,259.63,244.972z M256.65,278.342l11.83-7.091c1.4-0.864,3.25-0.417,4.08,1.013
				c0.865,1.4,0.391,3.218-1.011,4.082l-11.801,7.122c-1.429,0.834-3.247,0.387-4.112-1.013
				C254.803,281.023,255.251,279.206,256.65,278.342z M255.132,330.873c-0.683-1.49-0.029-3.249,1.462-3.934l12.513-5.78
				c1.49-0.685,3.277-0.029,3.964,1.461c0.684,1.489,0.029,3.247-1.459,3.932l-12.516,5.781
				C257.604,333.018,255.847,332.392,255.132,330.873z M274.289,353.755l-13.763,0.268c-1.669,0.03-3.012-1.251-3.041-2.92
				c-0.028-1.638,1.28-3.008,2.922-3.008l13.764-0.298c1.64-0.029,3.012,1.282,3.04,2.92
				C277.24,352.356,275.931,353.727,274.289,353.755z M331.887,366.985l-12.244,6.317c-1.463,0.775-3.249,0.179-3.993-1.282
				c-0.777-1.458-0.181-3.247,1.28-4.021l12.215-6.317c1.461-0.745,3.28-0.179,4.024,1.28
				C333.913,364.423,333.346,366.21,331.887,366.985z M337.549,327.148c-3.309,3.307-9.179,3.038-13.559,4.856
				c-4.229,1.758-8.164,6.167-13.021,6.167c-4.827,0-8.788-4.41-12.991-6.167c-4.38-1.818-10.28-1.549-13.556-4.856
				c-3.309-3.308-3.039-9.177-4.856-13.558c-1.758-4.23-6.17-8.163-6.17-13.021c0-4.827,4.412-8.79,6.17-12.991
				c1.817-4.379,1.548-10.28,4.856-13.556c3.275-3.309,9.176-3.039,13.556-4.858c4.203-1.758,8.164-6.167,12.991-6.167
				c4.857,0,8.793,4.41,13.021,6.167c4.38,1.819,10.25,1.549,13.559,4.858c3.308,3.276,3.036,9.177,4.855,13.556
				c1.758,4.202,6.168,8.165,6.168,12.991c0,4.857-4.41,8.79-6.168,13.021C340.585,317.971,340.856,323.84,337.549,327.148z
				 M365.764,351.134c-0.564,1.549-2.264,2.354-3.814,1.817l-12.961-4.678c-1.546-0.537-2.352-2.266-1.818-3.814
				c0.568-1.55,2.267-2.354,3.814-1.788l12.992,4.647C365.525,347.886,366.331,349.584,365.764,351.134z M369.756,281.917
				c-0.565,1.55-2.264,2.354-3.812,1.788l-12.992-4.648c-1.548-0.565-2.354-2.265-1.787-3.814c0.534-1.549,2.265-2.354,3.812-1.787
				l12.964,4.647C369.489,278.671,370.295,280.368,369.756,281.917z M381.885,307.93l-7.866-11.322
				c-0.954-1.341-0.597-3.189,0.747-4.143c1.368-0.924,3.217-0.596,4.138,0.745l7.866,11.322c0.926,1.37,0.598,3.218-0.745,4.171
				C384.654,309.627,382.807,309.3,381.885,307.93z"/>
			<path fill="#A5F3C9" d="M384.982,269.94c-2.115-5.095-1.609-9.803-2.233-14.779c-2.651,1.223-5.663,1.729-8.762,1.251
				c-3.396-0.506-6.313-2.115-8.55-4.38c-0.09,0.09-0.18,0.179-0.27,0.238l2.058,5.274c0.595,1.549-0.18,3.278-1.7,3.875
				c-1.549,0.594-3.248-0.179-3.874-1.7l-1.607-4.171c-2.384,0.923-5.005,1.281-7.718,0.864c-4.826-0.745-8.791-3.636-11.025-7.568
				c-0.177,0.358-0.478,0.656-0.835,0.894l-11.409,7.747c-1.373,0.924-3.218,0.566-4.143-0.804
				c-0.924-1.371-0.565-3.218,0.806-4.141l8.729-5.9c-1.223,0.149-2.502,0.118-3.815-0.09c-8.312-1.251-14.032-8.908-12.901-17.192
				c-1.281,0.15-2.594,0.179-3.903-0.029c-7.926-1.193-13.556-8.253-13.049-16.12c-10.61,2.832-12.545,10.071-20.441,13.348
				c-10.31,4.291-17.729-3.545-31.94,11.441c-14.182,15.018-7.152,21.633-11.44,31.942c-4.112,9.951-15.107,11.531-14.512,30.63
				c0.596,19.099,10.399,20.708,14.512,30.66c4.288,10.28,1.427,21.781,11.44,31.912c10.01,10.161,21.631,7.182,31.94,11.442
				c9.951,4.141,10.965,14.541,30.63,14.541c19.694,0,20.709-10.399,30.661-14.541c10.279-4.261,18.204-1.015,31.94-11.442
				c13.705-10.398,7.152-21.632,11.412-31.912c4.143-9.952,14.84-13.258,14.541-30.66
				C399.194,283.169,389.125,279.891,384.982,269.94z M292.08,233.886c0.564-1.549,2.264-2.354,3.811-1.788l12.963,4.648
				c1.549,0.566,2.354,2.265,1.816,3.814c-0.564,1.55-2.264,2.354-3.811,1.787l-12.992-4.646
				C292.318,237.134,291.514,235.436,292.08,233.886z M259.63,244.972c1.045-1.282,2.921-1.491,4.202-0.449l10.758,8.612
				c1.279,1.014,1.488,2.891,0.444,4.171c-1.012,1.282-2.889,1.49-4.17,0.477l-10.757-8.611
				C258.826,248.129,258.617,246.251,259.63,244.972z M256.65,278.342l11.83-7.091c1.4-0.864,3.25-0.417,4.08,1.013
				c0.865,1.4,0.391,3.218-1.011,4.082l-11.801,7.122c-1.429,0.834-3.247,0.387-4.112-1.013
				C254.803,281.023,255.251,279.206,256.65,278.342z M252.987,310.642c-1.073,1.281-2.951,1.459-4.202,0.387l-10.606-8.791
				c-1.282-1.042-1.431-2.92-0.39-4.2c1.044-1.252,2.921-1.43,4.172-0.388l10.639,8.791
				C253.851,307.512,254.029,309.389,252.987,310.642z M255.132,330.873c-0.683-1.49-0.029-3.249,1.462-3.934l12.513-5.78
				c1.49-0.685,3.277-0.029,3.964,1.461c0.684,1.489,0.029,3.247-1.459,3.932l-12.516,5.781
				C257.604,333.018,255.847,332.392,255.132,330.873z M274.289,353.755l-13.763,0.268c-1.669,0.03-3.012-1.251-3.041-2.92
				c-0.028-1.638,1.28-3.008,2.922-3.008l13.764-0.298c1.64-0.029,3.012,1.282,3.04,2.92
				C277.24,352.356,275.931,353.727,274.289,353.755z M308.048,350.627l-8.788,10.607c-1.044,1.281-2.921,1.46-4.2,0.387
				c-1.252-1.043-1.433-2.92-0.386-4.171l8.785-10.607c1.074-1.282,2.953-1.461,4.203-0.418
				C308.944,347.498,309.123,349.377,308.048,350.627z M331.887,366.985l-12.244,6.317c-1.463,0.775-3.249,0.179-3.993-1.282
				c-0.777-1.458-0.181-3.247,1.28-4.021l12.215-6.317c1.461-0.745,3.28-0.179,4.024,1.28
				C333.913,364.423,333.346,366.21,331.887,366.985z M337.549,327.148c-3.309,3.307-9.179,3.038-13.559,4.856
				c-4.229,1.758-8.164,6.167-13.021,6.167c-4.827,0-8.788-4.41-12.991-6.167c-4.38-1.818-10.28-1.549-13.556-4.856
				c-3.309-3.308-3.039-9.177-4.856-13.558c-1.758-4.23-6.17-8.163-6.17-13.021c0-4.827,4.412-8.79,6.17-12.991
				c1.817-4.379,1.548-10.28,4.856-13.556c3.275-3.309,9.176-3.039,13.556-4.858c4.203-1.758,8.164-6.167,12.991-6.167
				c4.857,0,8.793,4.41,13.021,6.167c4.38,1.819,10.25,1.549,13.559,4.858c3.308,3.276,3.036,9.177,4.855,13.556
				c1.758,4.202,6.168,8.165,6.168,12.991c0,4.857-4.41,8.79-6.168,13.021C340.585,317.971,340.856,323.84,337.549,327.148z
				 M365.764,351.134c-0.564,1.549-2.264,2.354-3.814,1.817l-12.961-4.678c-1.546-0.537-2.352-2.266-1.818-3.814
				c0.568-1.55,2.267-2.354,3.814-1.788l12.992,4.647C365.525,347.886,366.331,349.584,365.764,351.134z M367.97,321.099
				l-12.812,5.095c-1.552,0.597-3.279-0.148-3.873-1.668c-0.625-1.52,0.119-3.248,1.667-3.874l12.812-5.095
				c1.52-0.597,3.248,0.149,3.844,1.698C370.233,318.776,369.489,320.502,367.97,321.099z M369.756,281.917
				c-0.565,1.55-2.264,2.354-3.812,1.788l-12.992-4.648c-1.548-0.565-2.354-2.265-1.787-3.814c0.534-1.549,2.265-2.354,3.812-1.787
				l12.964,4.647C369.489,278.671,370.295,280.368,369.756,281.917z M381.885,307.93l-7.866-11.322
				c-0.954-1.341-0.597-3.189,0.747-4.143c1.368-0.924,3.217-0.596,4.138,0.745l7.866,11.322c0.926,1.37,0.598,3.218-0.745,4.171
				C384.654,309.627,382.807,309.3,381.885,307.93z"/>
		</g>
	</g>
	<g>
		<path fill="#EAD4A7" d="M182.24,383.548c-51.043,0-92.42,41.377-92.42,92.418c0,51.043,41.377,92.42,92.42,92.42
			c51.041,0,92.418-41.377,92.418-92.42C274.658,424.926,233.281,383.548,182.24,383.548z M182.24,505.737
			c-16.446,0-29.767-13.328-29.767-29.768c0-16.44,13.32-29.768,29.767-29.768c16.435,0,29.768,13.327,29.768,29.768
			C212.008,492.409,198.675,505.737,182.24,505.737z"/>
		<g>
			<path fill="#FF8ABA" d="M256.257,445.319c-4.277-10.295,2.042-18.994-11.431-31.928c-13.465-12.932-21.637-7.157-31.937-11.436
				c-9.939-4.135-10.44-14.525-30.641-14.525s-20.7,10.391-30.645,14.525c-10.295,4.278-17.722-3.567-31.927,11.436
				c-14.204,15.003-7.157,21.633-11.441,31.932c-4.131,9.942-15.107,11.548-14.525,30.643c0.587,19.098,10.395,20.703,14.525,30.646
				c4.284,10.295,1.426,21.779,11.436,31.931c10.011,10.152,21.638,7.156,31.933,11.436c9.944,4.135,10.958,14.525,30.645,14.525
				c19.688,0,20.701-10.391,30.641-14.525c10.3-4.279,18.208-1.012,31.937-11.436c13.729-10.419,7.153-21.636,11.431-31.928
				c4.131-9.946,14.839-13.242,14.524-30.649C270.469,458.562,260.388,455.266,256.257,445.319z M213.669,488.979
				c-1.815,4.366-1.56,10.256-4.854,13.552c-3.299,3.298-9.188,3.039-13.56,4.854c-4.219,1.754-8.158,6.166-13.007,6.166
				c-4.848,0-8.787-4.412-13.013-6.166c-4.37-1.815-10.259-1.557-13.553-4.854c-3.299-3.296-3.038-9.186-4.854-13.556
				c-1.758-4.22-6.17-8.159-6.17-13.01c0-4.848,4.412-8.787,6.17-13.009c1.815-4.371,1.555-10.257,4.854-13.558
				c3.294-3.297,9.183-3.037,13.553-4.853c4.226-1.755,8.165-6.166,13.013-6.166c4.849,0,8.788,4.411,13.007,6.166
				c4.371,1.815,10.261,1.556,13.56,4.853c3.294,3.297,3.038,9.187,4.854,13.558c1.751,4.222,6.164,8.161,6.164,13.009
				C219.833,480.816,215.42,484.756,213.669,488.979z"/>
			<path fill="#FCEA92" d="M256.26,445.319c-4.277-10.295,2.037-18.994-11.43-31.928c-13.473-12.932-21.643-7.157-31.938-11.436
				c-9.945-4.135-10.446-14.525-30.646-14.525c-20.2,0-20.694,10.391-30.641,14.525c-10.295,4.278-17.726-3.567-31.932,11.436
				c-14.205,15.003-7.157,21.633-11.44,31.932c-4.133,9.942-15.107,11.548-14.521,30.643c0.583,19.098,10.388,20.703,14.521,30.646
				c4.283,10.295,1.426,21.779,11.435,31.931c10.011,10.152,21.643,7.156,31.938,11.436c9.94,4.135,10.952,14.525,30.641,14.525
				c19.687,0,20.7-10.391,30.646-14.525c10.295-4.279,18.203-1.012,31.932-11.436c13.728-10.419,7.158-21.636,11.436-31.928
				c4.132-9.946,14.834-13.242,14.52-30.649C270.465,458.562,260.392,455.266,256.26,445.319z M163.345,409.274
				c0.56-1.548,2.264-2.354,3.812-1.798l12.972,4.654c1.554,0.556,2.357,2.265,1.798,3.812c-0.553,1.548-2.257,2.354-3.811,1.798
				l-12.973-4.655C163.595,412.53,162.792,410.825,163.345,409.274z M126.92,457.832c-0.85-1.411-0.396-3.241,1.013-4.09
				l11.809-7.112c1.407-0.851,3.241-0.396,4.091,1.016c0.85,1.407,0.396,3.239-1.019,4.091l-11.803,7.107
				C129.598,459.695,127.771,459.241,126.92,457.832z M145.565,529.153l-13.78,0.271c-1.646,0.031-3.008-1.278-3.038-2.922
				c-0.028-1.644,1.274-3.006,2.922-3.035l13.775-0.273c1.646-0.035,3.008,1.277,3.043,2.921
				C148.517,527.758,147.207,529.118,145.565,529.153z M208.812,502.531c-3.293,3.298-9.183,3.039-13.553,4.854
				c-4.219,1.754-8.166,6.166-13.013,6.166c-4.848,0-8.789-4.412-13.007-6.166c-4.371-1.815-10.26-1.557-13.561-4.854
				c-3.292-3.296-3.037-9.186-4.853-13.556c-1.752-4.22-6.163-8.159-6.163-13.01c0-4.848,4.411-8.787,6.163-13.009
				c1.815-4.371,1.561-10.257,4.853-13.558c3.301-3.297,9.189-3.037,13.561-4.853c4.218-1.755,8.159-6.166,13.007-6.166
				c4.847,0,8.787,4.411,13.013,6.166c4.37,1.815,10.26,1.556,13.553,4.853c3.3,3.297,3.038,9.187,4.854,13.558
				c1.758,4.222,6.169,8.161,6.169,13.009c0,4.851-4.411,8.79-6.169,13.014C211.851,493.346,212.112,499.235,208.812,502.531z
				 M237.031,526.528c-0.553,1.549-2.258,2.354-3.812,1.799l-12.971-4.656c-1.549-0.556-2.351-2.26-1.799-3.812
				c0.559-1.548,2.264-2.354,3.812-1.798l12.973,4.654C236.787,523.272,237.59,524.98,237.031,526.528z M241.013,457.301
				c-0.56,1.547-2.265,2.354-3.812,1.798l-12.972-4.655c-1.555-0.56-2.357-2.265-1.798-3.812c0.552-1.549,2.259-2.355,3.811-1.799
				l12.973,4.656C240.763,454.045,241.564,455.748,241.013,457.301z"/>
			<path fill="#78DDA0" d="M256.26,445.319c-4.277-10.295,2.037-18.994-11.43-31.928c-13.473-12.932-21.643-7.157-31.938-11.436
				c-9.945-4.135-10.446-14.525-30.646-14.525c-20.2,0-20.694,10.391-30.641,14.525c-10.295,4.278-17.726-3.567-31.932,11.436
				c-14.205,15.003-7.157,21.633-11.44,31.932c-4.133,9.942-15.107,11.548-14.521,30.643c0.583,19.098,10.388,20.703,14.521,30.646
				c4.283,10.295,1.426,21.779,11.435,31.931c10.011,10.152,21.643,7.156,31.938,11.436c9.94,4.135,10.952,14.525,30.641,14.525
				c19.687,0,20.7-10.391,30.646-14.525c10.295-4.279,18.203-1.012,31.932-11.436c13.728-10.419,7.158-21.636,11.436-31.928
				c4.132-9.946,14.834-13.242,14.52-30.649C270.465,458.562,260.392,455.266,256.26,445.319z M229.646,418.399
				c1.531-0.594,3.258,0.164,3.853,1.702l4.993,12.844c0.594,1.532-0.169,3.262-1.699,3.855c-1.537,0.596-3.258-0.163-3.858-1.696
				l-4.987-12.848C227.349,420.724,228.111,418.999,229.646,418.399z M163.345,409.274c0.56-1.548,2.264-2.354,3.812-1.798
				l12.972,4.654c1.554,0.556,2.357,2.265,1.798,3.812c-0.553,1.548-2.257,2.354-3.811,1.798l-12.973-4.655
				C163.595,412.53,162.792,410.825,163.345,409.274z M130.913,420.357c1.03-1.283,2.903-1.49,4.19-0.46l10.754,8.617
				c1.285,1.028,1.489,2.905,0.459,4.188c-1.029,1.284-2.904,1.49-4.184,0.464l-10.754-8.619
				C130.092,423.521,129.888,421.644,130.913,420.357z M127.933,453.742l11.809-7.112c1.407-0.851,3.241-0.396,4.091,1.016
				c0.85,1.407,0.396,3.239-1.019,4.091l-11.803,7.107c-1.413,0.852-3.24,0.397-4.091-1.012
				C126.07,456.421,126.524,454.591,127.933,453.742z M126.414,506.271c-0.692-1.496-0.04-3.265,1.455-3.952l12.513-5.775
				c1.495-0.69,3.27-0.034,3.956,1.458c0.687,1.496,0.035,3.264-1.454,3.951l-12.519,5.775
				C128.876,508.419,127.101,507.767,126.414,506.271z M145.565,529.153l-13.78,0.271c-1.646,0.031-3.008-1.278-3.038-2.922
				c-0.028-1.644,1.274-3.006,2.922-3.035l13.775-0.273c1.646-0.035,3.008,1.277,3.043,2.921
				C148.517,527.758,147.207,529.118,145.565,529.153z M203.162,542.36l-12.244,6.332c-1.461,0.76-3.259,0.181-4.016-1.28
				s-0.181-3.257,1.28-4.013l12.238-6.331c1.461-0.756,3.259-0.184,4.015,1.278C205.192,539.807,204.622,541.604,203.162,542.36z
				 M208.812,502.531c-3.293,3.298-9.183,3.039-13.553,4.854c-4.219,1.754-8.166,6.166-13.013,6.166
				c-4.848,0-8.789-4.412-13.007-6.166c-4.371-1.815-10.26-1.557-13.561-4.854c-3.292-3.296-3.037-9.186-4.853-13.556
				c-1.752-4.22-6.163-8.159-6.163-13.01c0-4.848,4.411-8.787,6.163-13.009c1.815-4.371,1.561-10.257,4.853-13.558
				c3.301-3.297,9.189-3.037,13.561-4.853c4.218-1.755,8.159-6.166,13.007-6.166c4.847,0,8.787,4.411,13.013,6.166
				c4.37,1.815,10.26,1.556,13.553,4.853c3.3,3.297,3.038,9.187,4.854,13.558c1.758,4.222,6.169,8.161,6.169,13.009
				c0,4.851-4.411,8.79-6.169,13.014C211.851,493.346,212.112,499.235,208.812,502.531z M237.031,526.528
				c-0.553,1.549-2.258,2.354-3.812,1.799l-12.971-4.656c-1.549-0.556-2.351-2.26-1.799-3.812c0.559-1.548,2.264-2.354,3.812-1.798
				l12.973,4.654C236.787,523.272,237.59,524.98,237.031,526.528z M241.013,457.301c-0.56,1.547-2.265,2.354-3.812,1.798
				l-12.972-4.655c-1.555-0.56-2.357-2.265-1.798-3.812c0.552-1.549,2.259-2.355,3.811-1.799l12.973,4.656
				C240.763,454.045,241.564,455.748,241.013,457.301z M253.141,483.328l-7.857-11.326c-0.936-1.35-0.6-3.206,0.751-4.146
				c1.354-0.938,3.206-0.603,4.144,0.748l7.863,11.328c0.931,1.35,0.599,3.212-0.758,4.146
				C255.934,485.015,254.078,484.681,253.141,483.328z"/>
			<path fill="#7F6A55" d="M256.26,445.319c-4.277-10.295,2.037-18.994-11.43-31.928c-13.473-12.932-21.643-7.157-31.938-11.436
				c-9.945-4.135-10.446-14.525-30.646-14.525c-20.2,0-20.694,10.391-30.641,14.525c-10.295,4.278-17.726-3.567-31.932,11.436
				c-14.205,15.003-7.157,21.633-11.44,31.932c-4.133,9.942-15.107,11.548-14.523,30.643c0.586,19.098,10.391,20.703,14.523,30.646
				c4.283,10.295,1.426,21.779,11.435,31.931c10.011,10.152,21.643,7.156,31.938,11.436c9.94,4.135,10.952,14.525,30.641,14.525
				c19.687,0,20.7-10.391,30.646-14.525c10.295-4.279,18.203-1.012,31.932-11.436c13.728-10.419,7.158-21.636,11.436-31.928
				c4.132-9.946,14.834-13.242,14.52-30.649C270.465,458.562,260.392,455.266,256.26,445.319z M229.646,418.399
				c1.531-0.594,3.258,0.164,3.853,1.702l4.993,12.844c0.594,1.532-0.169,3.262-1.699,3.855c-1.537,0.596-3.258-0.163-3.858-1.696
				l-4.987-12.848C227.349,420.724,228.111,418.999,229.646,418.399z M196.981,427.926l11.413-7.726
				c1.361-0.922,3.212-0.564,4.137,0.8c0.92,1.362,0.565,3.214-0.797,4.135l-11.413,7.726c-1.366,0.923-3.217,0.564-4.138-0.797
				C195.26,430.702,195.614,428.849,196.981,427.926z M163.345,409.274c0.56-1.548,2.264-2.354,3.812-1.798l12.972,4.654
				c1.554,0.556,2.357,2.265,1.798,3.812c-0.553,1.548-2.257,2.354-3.811,1.798l-12.973-4.655
				C163.595,412.53,162.792,410.825,163.345,409.274z M130.913,420.357c1.03-1.283,2.903-1.49,4.19-0.46l10.754,8.617
				c1.285,1.028,1.489,2.905,0.459,4.188c-1.029,1.284-2.904,1.49-4.184,0.464l-10.754-8.619
				C130.092,423.521,129.888,421.644,130.913,420.357z M127.933,453.742l11.809-7.112c1.407-0.851,3.241-0.396,4.091,1.016
				c0.85,1.407,0.396,3.239-1.019,4.091l-11.803,7.107c-1.413,0.852-3.24,0.397-4.091-1.012
				C126.07,456.421,126.524,454.591,127.933,453.742z M124.243,486.031c-1.047,1.269-2.927,1.446-4.189,0.393l-10.608-8.794
				c-1.271-1.052-1.443-2.93-0.397-4.195c1.055-1.269,2.928-1.445,4.197-0.394l10.608,8.794
				C125.122,482.889,125.296,484.766,124.243,486.031z M126.414,506.271c-0.692-1.496-0.04-3.265,1.455-3.952l12.513-5.775
				c1.495-0.69,3.27-0.034,3.956,1.458c0.687,1.496,0.035,3.264-1.454,3.951l-12.519,5.775
				C128.876,508.419,127.101,507.767,126.414,506.271z M145.565,529.153l-13.78,0.271c-1.646,0.031-3.008-1.278-3.038-2.922
				c-0.028-1.644,1.274-3.006,2.922-3.035l13.775-0.273c1.646-0.035,3.008,1.277,3.043,2.921
				C148.517,527.758,147.207,529.118,145.565,529.153z M179.33,526.022l-8.799,10.609c-1.053,1.266-2.927,1.439-4.195,0.39
				c-1.269-1.051-1.443-2.927-0.39-4.192l8.794-10.609c1.053-1.269,2.927-1.44,4.195-0.394
				C180.204,522.88,180.379,524.754,179.33,526.022z M203.162,542.36l-12.244,6.332c-1.461,0.76-3.259,0.181-4.016-1.28
				s-0.181-3.257,1.28-4.013l12.238-6.331c1.461-0.756,3.259-0.184,4.015,1.278C205.192,539.807,204.622,541.604,203.162,542.36z
				 M208.812,502.531c-3.293,3.298-9.183,3.039-13.553,4.854c-4.219,1.754-8.166,6.166-13.013,6.166
				c-4.848,0-8.789-4.412-13.007-6.166c-4.371-1.815-10.26-1.557-13.561-4.854c-3.292-3.296-3.037-9.186-4.853-13.556
				c-1.752-4.22-6.163-8.159-6.163-13.01c0-4.848,4.411-8.787,6.163-13.009c1.815-4.371,1.561-10.257,4.853-13.558
				c3.301-3.297,9.189-3.037,13.561-4.853c4.218-1.755,8.159-6.166,13.007-6.166c4.847,0,8.787,4.411,13.013,6.166
				c4.37,1.815,10.26,1.556,13.553,4.853c3.3,3.297,3.038,9.187,4.854,13.558c1.758,4.222,6.169,8.161,6.169,13.009
				c0,4.851-4.411,8.79-6.169,13.014C211.851,493.346,212.112,499.235,208.812,502.531z M237.031,526.528
				c-0.553,1.549-2.258,2.354-3.812,1.799l-12.971-4.656c-1.549-0.556-2.351-2.26-1.799-3.812c0.559-1.548,2.264-2.354,3.812-1.798
				l12.973,4.654C236.787,523.272,237.59,524.98,237.031,526.528z M239.226,496.5l-12.809,5.083c-1.536,0.605-3.265-0.139-3.87-1.67
				c-0.611-1.53,0.135-3.262,1.671-3.867l12.809-5.085c1.53-0.609,3.259,0.139,3.863,1.669
				C241.495,494.162,240.75,495.89,239.226,496.5z M241.013,457.301c-0.56,1.547-2.265,2.354-3.812,1.798l-12.972-4.655
				c-1.555-0.56-2.357-2.265-1.798-3.812c0.552-1.549,2.259-2.355,3.811-1.799l12.973,4.656
				C240.763,454.045,241.564,455.748,241.013,457.301z M253.141,483.328l-7.857-11.326c-0.936-1.35-0.6-3.206,0.751-4.146
				c1.354-0.938,3.206-0.603,4.144,0.748l7.863,11.328c0.931,1.35,0.599,3.212-0.758,4.146
				C255.934,485.015,254.078,484.681,253.141,483.328z"/>
		</g>
	</g>
</g>
<g id="Watermark" opacity="0.7">
</g>
<g id="Label_Template" display="none">
</g>
</svg>
