<?xml version="1.0" encoding="utf-8"?>
<!-- Generator: Adobe Illustrator 16.0.0, SVG Export Plug-In . SVG Version: 6.00 Build 0)  -->
<!DOCTYPE svg PUBLIC "-//W3C//DTD SVG 1.1//EN" "http://www.w3.org/Graphics/SVG/1.1/DTD/svg11.dtd">
<svg version="1.1" xmlns="http://www.w3.org/2000/svg" xmlns:xlink="http://www.w3.org/1999/xlink" x="0px" y="0px" width="864px"
	 height="864px" viewBox="0 0 864 864" enable-background="new 0 0 864 864" xml:space="preserve">
<g id="Background">
</g>
<g id="Theme_Set">
</g>
<g id="Design_Elements">
	<path fill="#7F6A55" d="M711.733,559.536c-36.583,0-66.239,29.656-66.239,66.238c0,36.583,29.656,66.238,66.239,66.238
		c36.581,0,66.236-29.655,66.236-66.238C777.97,589.192,748.314,559.536,711.733,559.536z M711.733,647.111
		c-11.787,0-21.335-9.552-21.335-21.334c0-11.783,9.548-21.337,21.335-21.337c11.779,0,21.335,9.554,21.335,21.337
		C733.068,637.56,723.513,647.111,711.733,647.111z"/>
	<path fill="#EFEFED" d="M619.858,603.81c-3.066-7.378,1.464-13.613-8.192-22.885c-9.651-9.268-15.508-5.129-22.891-8.195
		c-7.124-2.963-7.481-10.411-21.96-10.411c-14.478,0-14.835,7.448-21.964,10.411c-7.379,3.066-12.701-2.557-22.883,8.195
		c-10.18,10.754-5.129,15.507-8.199,22.887c-2.961,7.126-10.828,8.277-10.41,21.962c0.42,13.688,7.449,14.839,10.41,21.964
		c3.07,7.38,1.021,15.61,8.195,22.887c7.175,7.276,15.508,5.128,22.887,8.195c7.129,2.965,7.854,10.411,21.964,10.411
		c14.109,0,14.836-7.446,21.96-10.411c7.383-3.067,13.052-0.726,22.891-8.195c9.839-7.468,5.126-15.507,8.192-22.883
		c2.961-7.129,10.636-9.492,10.409-21.968C630.043,613.301,622.819,610.938,619.858,603.81z M589.334,635.1
		c-1.302,3.131-1.117,7.352-3.479,9.715c-2.365,2.362-6.586,2.178-9.718,3.479c-3.024,1.258-5.848,4.419-9.322,4.419
		c-3.474,0-6.299-3.161-9.326-4.419c-3.133-1.301-7.354-1.116-9.714-3.479c-2.365-2.363-2.178-6.584-3.479-9.717
		c-1.259-3.023-4.421-5.848-4.421-9.324c0-3.474,3.162-6.298,4.421-9.324c1.301-3.132,1.113-7.351,3.479-9.716
		c2.36-2.362,6.581-2.178,9.714-3.479c3.027-1.258,5.853-4.418,9.326-4.418c3.475,0,6.298,3.16,9.322,4.418
		c3.132,1.301,7.353,1.116,9.718,3.479c2.361,2.363,2.177,6.584,3.479,9.716c1.256,3.026,4.418,5.851,4.418,9.324
		C593.752,629.25,590.59,632.074,589.334,635.1z"/>
	<path fill="#FCEA92" d="M474.936,603.81c-3.066-7.378,1.459-13.613-8.192-22.885c-9.655-9.268-15.512-5.129-22.891-8.195
		c-7.128-2.963-7.486-10.411-21.959-10.411c-14.479,0-14.832,7.448-21.961,10.411c-7.378,3.066-12.704-2.557-22.886,8.195
		c-10.182,10.754-5.13,15.507-8.2,22.887c-2.962,7.126-10.828,8.277-10.406,21.962c0.417,13.688,7.444,14.839,10.406,21.964
		c3.07,7.38,1.022,15.61,8.196,22.887s15.512,5.128,22.89,8.195c7.124,2.965,7.851,10.411,21.961,10.411
		c14.106,0,14.832-7.446,21.959-10.411c7.379-3.067,13.048-0.726,22.887-8.195c9.84-7.468,5.13-15.507,8.196-22.883
		c2.962-7.129,10.632-9.492,10.406-21.968C485.116,613.301,477.897,610.938,474.936,603.81z M408.345,577.975
		c0.401-1.109,1.622-1.687,2.732-1.288l9.296,3.336c1.113,0.398,1.69,1.622,1.289,2.732c-0.396,1.109-1.618,1.688-2.73,1.289
		l-9.299-3.337C408.524,580.308,407.95,579.087,408.345,577.975z M382.24,612.777c-0.61-1.012-0.284-2.323,0.725-2.933l8.464-5.097
		c1.009-0.608,2.322-0.283,2.932,0.728c0.61,1.01,0.284,2.321-0.73,2.933l-8.458,5.095
		C384.159,614.112,382.849,613.787,382.24,612.777z M395.603,663.895l-9.876,0.193c-1.182,0.023-2.158-0.915-2.178-2.094
		c-0.021-1.178,0.913-2.153,2.094-2.176l9.872-0.195c1.18-0.024,2.156,0.915,2.182,2.095
		C397.718,662.893,396.78,663.868,395.603,663.895z M440.929,644.814c-2.359,2.362-6.58,2.178-9.71,3.479
		c-3.023,1.258-5.852,4.419-9.325,4.419c-3.476,0-6.299-3.161-9.323-4.419c-3.131-1.301-7.353-1.116-9.718-3.479
		c-2.36-2.363-2.177-6.584-3.479-9.717c-1.256-3.023-4.417-5.848-4.417-9.324c0-3.474,3.161-6.298,4.417-9.324
		c1.302-3.132,1.118-7.351,3.479-9.716c2.365-2.362,6.587-2.178,9.718-3.479c3.024-1.258,5.848-4.418,9.323-4.418
		c3.474,0,6.298,3.16,9.325,4.418c3.13,1.301,7.351,1.116,9.71,3.479c2.365,2.363,2.179,6.584,3.479,9.716
		c1.26,3.026,4.421,5.851,4.421,9.324c0,3.477-3.161,6.301-4.421,9.326C443.107,638.23,443.294,642.451,440.929,644.814z
		 M461.154,662.014c-0.396,1.109-1.618,1.687-2.732,1.288l-9.297-3.337c-1.109-0.398-1.684-1.62-1.288-2.732
		c0.4-1.108,1.622-1.686,2.732-1.289l9.296,3.338C460.979,659.68,461.556,660.903,461.154,662.014z M464.008,612.396
		c-0.401,1.109-1.622,1.688-2.732,1.289l-9.297-3.337c-1.113-0.4-1.689-1.622-1.288-2.731c0.396-1.11,1.618-1.688,2.731-1.289
		l9.297,3.337C463.828,610.062,464.403,611.284,464.008,612.396z"/>
	<path fill="#78DDA0" d="M330.014,603.81c-3.065-7.378,1.46-13.613-8.191-22.885c-9.655-9.268-15.511-5.129-22.891-8.195
		c-7.128-2.963-7.486-10.411-21.963-10.411c-14.478,0-14.832,7.448-21.96,10.411c-7.378,3.066-12.704-2.557-22.886,8.195
		c-10.182,10.754-5.13,15.507-8.201,22.887c-2.961,7.126-10.828,8.277-10.406,21.962c0.417,13.688,7.445,14.839,10.406,21.964
		c3.07,7.38,1.023,15.61,8.197,22.887s15.512,5.128,22.89,8.195c7.124,2.965,7.85,10.411,21.96,10.411
		c14.11,0,14.835-7.446,21.963-10.411c7.379-3.067,13.047-0.726,22.887-8.195c9.84-7.468,5.13-15.507,8.195-22.883
		c2.962-7.129,10.633-9.492,10.407-21.968C340.196,613.301,332.976,610.938,330.014,603.81z M310.941,584.515
		c1.096-0.426,2.335,0.119,2.761,1.221l3.578,9.205c0.425,1.099-0.121,2.337-1.218,2.763c-1.102,0.428-2.335-0.116-2.766-1.216
		l-3.574-9.207C309.293,586.182,309.84,584.944,310.941,584.515z M263.421,577.975c0.401-1.109,1.622-1.687,2.732-1.288l9.296,3.336
		c1.113,0.398,1.69,1.622,1.289,2.732c-0.396,1.109-1.619,1.688-2.73,1.289l-9.299-3.337
		C263.6,580.308,263.026,579.087,263.421,577.975z M240.177,585.918c0.738-0.919,2.082-1.067,3.003-0.329l7.708,6.175
		c0.921,0.738,1.067,2.083,0.329,3.003c-0.739,0.92-2.082,1.068-3,0.333l-7.707-6.178
		C239.588,588.186,239.442,586.841,240.177,585.918z M238.04,609.845l8.464-5.097c1.009-0.608,2.322-0.283,2.932,0.728
		c0.61,1.01,0.284,2.321-0.73,2.933l-8.458,5.095c-1.013,0.609-2.322,0.284-2.932-0.726
		C236.706,611.766,237.031,610.454,238.04,609.845z M236.953,647.493c-0.497-1.071-0.03-2.338,1.042-2.831l8.968-4.14
		c1.071-0.494,2.343-0.024,2.835,1.044c0.492,1.072,0.025,2.341-1.042,2.833l-8.972,4.14
		C238.717,649.034,237.445,648.566,236.953,647.493z M250.68,663.895l-9.876,0.193c-1.182,0.023-2.158-0.915-2.178-2.094
		c-0.021-1.178,0.914-2.153,2.094-2.176l9.873-0.195c1.18-0.024,2.156,0.915,2.181,2.095
		C252.794,662.893,251.855,663.868,250.68,663.895z M291.958,673.36l-8.775,4.538c-1.046,0.544-2.335,0.129-2.878-0.917
		c-0.542-1.049-0.128-2.335,0.918-2.876l8.772-4.538c1.047-0.543,2.336-0.132,2.878,0.915
		C293.415,671.529,293.006,672.818,291.958,673.36z M296.008,644.814c-2.359,2.362-6.581,2.178-9.714,3.479
		c-3.022,1.258-5.851,4.419-9.325,4.419c-3.475,0-6.298-3.161-9.323-4.419c-3.131-1.301-7.353-1.116-9.718-3.479
		c-2.36-2.363-2.177-6.584-3.478-9.717c-1.256-3.023-4.417-5.848-4.417-9.324c0-3.474,3.161-6.298,4.417-9.324
		c1.301-3.132,1.118-7.351,3.478-9.716c2.366-2.362,6.587-2.178,9.718-3.479c3.024-1.258,5.848-4.418,9.323-4.418
		c3.474,0,6.298,3.16,9.325,4.418c3.134,1.301,7.355,1.116,9.714,3.479c2.365,2.363,2.179,6.584,3.479,9.716
		c1.26,3.026,4.421,5.851,4.421,9.324c0,3.477-3.161,6.301-4.421,9.326C298.187,638.23,298.374,642.451,296.008,644.814z
		 M316.234,662.014c-0.396,1.109-1.618,1.687-2.732,1.288l-9.297-3.337c-1.11-0.398-1.684-1.62-1.288-2.732
		c0.4-1.108,1.622-1.686,2.732-1.289l9.296,3.338C316.058,659.68,316.634,660.903,316.234,662.014z M319.087,612.396
		c-0.402,1.109-1.622,1.688-2.732,1.289l-9.297-3.337c-1.114-0.4-1.69-1.622-1.289-2.731c0.396-1.11,1.619-1.688,2.732-1.289
		l9.297,3.337C318.908,610.062,319.483,611.284,319.087,612.396z M327.78,631.05l-5.632-8.116c-0.671-0.968-0.43-2.298,0.538-2.973
		c0.973-0.671,2.299-0.432,2.97,0.537l5.635,8.118c0.667,0.968,0.43,2.303-0.541,2.972C329.781,632.26,328.451,632.02,327.78,631.05
		z"/>
	<path fill="#FF8ABA" d="M185.084,603.81c-3.065-7.378,1.459-13.613-8.191-22.885c-9.656-9.268-15.512-5.129-22.891-8.195
		c-7.127-2.963-7.486-10.411-21.963-10.411c-14.478,0-14.832,7.448-21.96,10.411c-7.378,3.066-12.704-2.557-22.886,8.195
		c-10.181,10.754-5.13,15.507-8.201,22.887c-2.961,7.126-10.828,8.277-10.407,21.962c0.419,13.688,7.446,14.839,10.407,21.964
		c3.07,7.38,1.023,15.61,8.197,22.887c7.173,7.276,15.511,5.128,22.889,8.195c7.124,2.965,7.851,10.411,21.96,10.411
		c14.11,0,14.836-7.446,21.963-10.411c7.379-3.067,13.048-0.726,22.887-8.195c9.839-7.468,5.13-15.507,8.195-22.883
		c2.962-7.129,10.632-9.492,10.407-21.968C195.265,613.301,188.046,610.938,185.084,603.81z M166.011,584.515
		c1.097-0.426,2.335,0.119,2.762,1.221l3.578,9.205c0.425,1.099-0.121,2.337-1.218,2.763c-1.102,0.428-2.335-0.116-2.765-1.216
		l-3.575-9.207C164.362,586.182,164.909,584.944,166.011,584.515z M142.599,591.343l8.18-5.537c0.976-0.66,2.302-0.404,2.965,0.573
		c0.66,0.976,0.404,2.303-0.572,2.964l-8.179,5.537c-0.98,0.661-2.306,0.404-2.965-0.571
		C141.364,593.332,141.619,592.003,142.599,591.343z M118.491,577.975c0.401-1.109,1.623-1.687,2.732-1.288l9.296,3.336
		c1.114,0.398,1.69,1.622,1.289,2.732c-0.396,1.109-1.618,1.688-2.73,1.289l-9.298-3.337
		C118.669,580.308,118.095,579.087,118.491,577.975z M95.247,585.918c0.738-0.919,2.082-1.067,3.002-0.329l7.709,6.175
		c0.92,0.738,1.067,2.083,0.329,3.003c-0.739,0.92-2.082,1.068-3,0.333l-7.707-6.178C94.658,588.186,94.512,586.841,95.247,585.918z
		 M93.11,609.845l8.464-5.097c1.009-0.608,2.322-0.283,2.932,0.728c0.609,1.01,0.284,2.321-0.731,2.933l-8.458,5.095
		c-1.012,0.609-2.322,0.284-2.932-0.726C91.775,611.766,92.101,610.454,93.11,609.845z M90.466,632.987
		c-0.75,0.909-2.098,1.037-3.002,0.281l-7.604-6.302c-0.91-0.756-1.035-2.1-0.284-3.008c0.755-0.908,2.098-1.036,3.006-0.281
		l7.604,6.303C91.096,630.735,91.222,632.08,90.466,632.987z M92.022,647.493c-0.497-1.071-0.029-2.338,1.042-2.831l8.969-4.14
		c1.07-0.494,2.343-0.024,2.835,1.044c0.492,1.072,0.025,2.341-1.042,2.833l-8.972,4.14
		C93.787,649.034,92.515,648.566,92.022,647.493z M105.749,663.895l-9.876,0.193c-1.181,0.023-2.158-0.915-2.178-2.094
		c-0.021-1.178,0.914-2.153,2.094-2.176l9.873-0.195c1.18-0.024,2.156,0.915,2.181,2.095
		C107.864,662.893,106.925,663.868,105.749,663.895z M129.949,661.65l-6.307,7.604c-0.755,0.907-2.098,1.032-3.008,0.279
		c-0.909-0.753-1.034-2.098-0.279-3.005l6.303-7.604c0.754-0.91,2.098-1.032,3.006-0.281
		C130.574,659.398,130.7,660.741,129.949,661.65z M147.028,673.36l-8.775,4.538c-1.047,0.544-2.335,0.129-2.878-0.917
		c-0.542-1.049-0.128-2.335,0.917-2.876l8.772-4.538c1.047-0.543,2.336-0.132,2.878,0.915
		C148.484,671.529,148.076,672.818,147.028,673.36z M151.078,644.814c-2.36,2.362-6.581,2.178-9.714,3.479
		c-3.023,1.258-5.852,4.419-9.326,4.419c-3.475,0-6.298-3.161-9.323-4.419c-3.131-1.301-7.352-1.116-9.718-3.479
		c-2.36-2.363-2.177-6.584-3.478-9.717c-1.256-3.023-4.417-5.848-4.417-9.324c0-3.474,3.161-6.298,4.417-9.324
		c1.301-3.132,1.118-7.351,3.478-9.716c2.366-2.362,6.586-2.178,9.718-3.479c3.024-1.258,5.848-4.418,9.323-4.418
		c3.474,0,6.298,3.16,9.326,4.418c3.134,1.301,7.354,1.116,9.714,3.479c2.365,2.363,2.178,6.584,3.479,9.716
		c1.26,3.026,4.42,5.851,4.42,9.324c0,3.477-3.161,6.301-4.42,9.326C153.256,638.23,153.443,642.451,151.078,644.814z
		 M171.303,662.014c-0.396,1.109-1.618,1.687-2.732,1.288l-9.297-3.337c-1.11-0.398-1.684-1.62-1.289-2.732
		c0.401-1.108,1.622-1.686,2.732-1.289l9.296,3.338C171.128,659.68,171.704,660.903,171.303,662.014z M172.876,640.491l-9.18,3.644
		c-1.1,0.433-2.34-0.101-2.774-1.197c-0.438-1.097,0.097-2.338,1.197-2.771l9.18-3.646c1.098-0.437,2.336,0.1,2.77,1.197
		C174.502,638.814,173.969,640.053,172.876,640.491z M174.157,612.396c-0.402,1.109-1.622,1.688-2.732,1.289l-9.297-3.337
		c-1.113-0.4-1.69-1.622-1.288-2.731c0.396-1.11,1.618-1.688,2.732-1.289l9.296,3.337
		C173.978,610.062,174.552,611.284,174.157,612.396z M182.85,631.05l-5.632-8.116c-0.671-0.968-0.43-2.298,0.538-2.973
		c0.972-0.671,2.298-0.432,2.97,0.537l5.635,8.118c0.667,0.968,0.43,2.303-0.542,2.972C184.851,632.26,183.521,632.02,182.85,631.05
		z"/>
	<path fill="#E1D0AB" d="M767.343,375.199c-1.068,1.473-2.521,2.647-4.166,3.438c-1.899,0.876-4.058,1.239-6.278,0.897
		c-2.433-0.363-4.526-1.517-6.128-3.141c-0.064,0.064-0.128,0.129-0.192,0.172c-1.046,1.024-2.308,1.836-3.674,2.349
		c-1.708,0.662-3.587,0.919-5.531,0.62c-3.46-0.535-6.299-2.606-7.9-5.425c-0.49-0.833-0.854-1.73-1.11-2.69
		c-1.176,0.598-2.456,0.982-3.802,1.11c-0.875,0.106-1.793,0.085-2.733-0.064c-5.958-0.897-10.059-6.385-9.247-12.322
		c-0.918,0.108-1.858,0.128-2.797-0.021c-5.681-0.855-9.717-5.915-9.353-11.554c0.021-0.32,0.062-0.62,0.106-0.939
		c0.126-0.833,0.342-1.602,0.618-2.35c-33.484,3.31-59.668,31.542-59.668,65.902c0,36.582,29.664,66.244,66.246,66.244
		c36.581,0,66.243-29.662,66.243-66.244C777.977,397.899,774.068,385.556,767.343,375.199z M733.068,411.182
		c0,11.788-9.548,21.335-21.335,21.335c-11.788,0-21.335-9.547-21.335-21.335c0-11.767,9.547-21.333,21.335-21.333
		C723.521,389.849,733.068,399.415,733.068,411.182z"/>
	<path fill="#EFEFED" d="M619.85,389.229c-1.517-3.652-1.152-7.027-1.603-10.593c-1.899,0.876-4.058,1.239-6.278,0.897
		c-2.433-0.363-4.526-1.517-6.128-3.141c-0.064,0.064-0.128,0.129-0.192,0.172c-1.046,1.024-2.308,1.836-3.674,2.349
		c-1.708,0.662-3.587,0.919-5.531,0.62c-3.46-0.535-6.299-2.606-7.9-5.425c-0.49-0.833-0.854-1.73-1.11-2.69
		c-1.176,0.598-2.456,0.982-3.802,1.11c-0.875,0.106-1.793,0.085-2.733-0.064c-5.958-0.897-10.059-6.385-9.247-12.322
		c-0.918,0.108-1.858,0.128-2.797-0.021c-5.681-0.855-9.717-5.915-9.353-11.554c-7.604,2.028-8.99,7.218-14.65,9.567
		c-7.39,3.074-12.707-2.541-22.893,8.199c-10.165,10.764-5.127,15.505-8.201,22.895c-2.945,7.132-10.827,8.264-10.399,21.952
		s7.454,14.843,10.399,21.975c3.074,7.368,1.024,15.61,8.201,22.871c7.174,7.282,15.503,5.147,22.893,8.202
		c7.132,2.967,7.856,10.421,21.953,10.421c14.114,0,14.842-7.454,21.975-10.421c7.368-3.055,13.048-0.728,22.892-8.202
		c9.824-7.452,5.128-15.503,8.18-22.871c2.968-7.132,10.637-9.503,10.421-21.975C630.034,398.71,622.817,396.361,619.85,389.229z
		 M585.852,430.231c-2.37,2.37-6.576,2.178-9.715,3.48c-3.033,1.26-5.853,4.42-9.333,4.42c-3.46,0-6.301-3.16-9.312-4.42
		c-3.139-1.303-7.368-1.11-9.717-3.48c-2.371-2.371-2.177-6.578-3.481-9.717c-1.258-3.033-4.42-5.852-4.42-9.333
		c0-3.458,3.162-6.3,4.42-9.311c1.305-3.139,1.11-7.368,3.481-9.716c2.349-2.372,6.578-2.179,9.717-3.482
		c3.011-1.26,5.852-4.42,9.312-4.42c3.48,0,6.3,3.16,9.333,4.42c3.139,1.304,7.345,1.11,9.715,3.482
		c2.373,2.348,2.178,6.577,3.48,9.716c1.26,3.011,4.423,5.853,4.423,9.311c0,3.481-3.163,6.3-4.423,9.333
		C588.029,423.653,588.225,427.86,585.852,430.231z"/>
	<path fill="#FCEA92" d="M474.925,389.229c-1.516-3.652-1.152-7.027-1.602-10.593c-1.899,0.876-4.059,1.239-6.279,0.897
		c-2.433-0.363-4.525-1.517-6.128-3.141c-0.064,0.064-0.128,0.129-0.192,0.172c-1.045,1.024-2.308,1.836-3.674,2.349
		c-1.707,0.662-3.587,0.919-5.53,0.62c-3.46-0.535-6.299-2.606-7.901-5.425c-0.489-0.833-0.854-1.73-1.109-2.69
		c-1.177,0.598-2.457,0.982-3.803,1.11c-0.875,0.106-1.793,0.085-2.733-0.064c-5.954-0.897-10.055-6.385-9.244-12.322
		c-0.918,0.108-1.857,0.128-2.797-0.021c-5.68-0.855-9.717-5.915-9.353-11.554c-7.604,2.028-8.99,7.218-14.65,9.567
		c-7.389,3.074-12.707-2.541-22.893,8.199c-10.165,10.764-5.126,15.505-8.2,22.895c-2.946,7.132-10.828,8.264-10.399,21.952
		c0.427,13.688,7.453,14.843,10.399,21.975c3.074,7.368,1.023,15.61,8.2,22.871c7.174,7.282,15.504,5.147,22.893,8.202
		c7.132,2.967,7.857,10.421,21.954,10.421c14.11,0,14.838-7.454,21.97-10.421c7.368-3.055,13.048-0.728,22.893-8.202
		c9.823-7.452,5.127-15.503,8.179-22.871c2.968-7.132,10.637-9.503,10.421-21.975C485.11,398.71,477.893,396.361,474.925,389.229z
		 M408.343,363.389c0.405-1.11,1.623-1.687,2.732-1.281l9.29,3.331c1.11,0.406,1.688,1.624,1.302,2.734
		c-0.404,1.111-1.622,1.688-2.732,1.281l-9.311-3.331C408.514,365.716,407.936,364.499,408.343,363.389z M382.95,395.251
		l8.481-5.082c1.002-0.62,2.326-0.3,2.923,0.726c0.62,1.003,0.28,2.306-0.726,2.926l-8.456,5.104
		c-1.024,0.598-2.328,0.277-2.947-0.727C381.626,397.173,381.948,395.87,382.95,395.251z M395.592,449.301l-9.862,0.192
		c-1.198,0.021-2.159-0.896-2.181-2.094c-0.02-1.174,0.917-2.155,2.095-2.155l9.863-0.214c1.177-0.021,2.158,0.918,2.179,2.092
		C397.708,448.298,396.769,449.28,395.592,449.301z M440.927,430.231c-2.37,2.37-6.576,2.178-9.711,3.48
		c-3.033,1.26-5.853,4.42-9.332,4.42c-3.46,0-6.302-3.16-9.312-4.42c-3.138-1.303-7.368-1.11-9.717-3.48
		c-2.371-2.371-2.177-6.578-3.48-9.717c-1.259-3.033-4.421-5.852-4.421-9.333c0-3.458,3.162-6.3,4.421-9.311
		c1.304-3.139,1.109-7.368,3.48-9.716c2.349-2.372,6.579-2.179,9.717-3.482c3.011-1.26,5.853-4.42,9.312-4.42
		c3.479,0,6.299,3.16,9.332,4.42c3.135,1.304,7.341,1.11,9.711,3.482c2.373,2.348,2.179,6.577,3.481,9.716
		c1.26,3.011,4.422,5.853,4.422,9.311c0,3.481-3.162,6.3-4.422,9.333C443.105,423.653,443.3,427.86,440.927,430.231z
		 M461.15,447.423c-0.404,1.109-1.622,1.687-2.734,1.302l-9.288-3.353c-1.11-0.385-1.688-1.624-1.303-2.734
		c0.406-1.11,1.623-1.688,2.733-1.28l9.312,3.331C460.979,445.095,461.558,446.312,461.15,447.423z M464.012,397.813
		c-0.404,1.111-1.623,1.688-2.731,1.281l-9.312-3.331c-1.109-0.405-1.687-1.624-1.28-2.733c0.383-1.111,1.623-1.688,2.731-1.281
		l9.29,3.331C463.819,395.486,464.397,396.703,464.012,397.813z"/>
	<path fill="#FF8ABA" d="M330.004,389.229c-1.517-3.652-1.152-7.027-1.603-10.593c-1.899,0.876-4.058,1.239-6.278,0.897
		c-2.433-0.363-4.525-1.517-6.128-3.141c-0.064,0.064-0.128,0.129-0.192,0.172l1.474,3.779c0.427,1.11-0.127,2.35-1.218,2.777
		c-1.109,0.426-2.328-0.129-2.776-1.219l-1.154-2.989c-1.707,0.662-3.586,0.919-5.53,0.62c-3.46-0.535-6.299-2.606-7.901-5.425
		c-0.49-0.833-0.854-1.73-1.11-2.69c-1.176,0.598-2.456,0.982-3.802,1.11c-0.875,0.106-1.793,0.085-2.734-0.064
		c-5.958-0.897-10.059-6.385-9.247-12.322c-0.917,0.108-1.858,0.128-2.797-0.021c-5.68-0.855-9.717-5.915-9.353-11.554
		c-7.604,2.028-8.99,7.218-14.65,9.567c-7.389,3.074-12.707-2.541-22.893,8.199c-10.165,10.764-5.126,15.505-8.201,22.895
		c-2.946,7.132-10.828,8.264-10.399,21.952c0.427,13.688,7.454,14.843,10.399,21.975c3.074,7.368,1.024,15.61,8.201,22.871
		c7.174,7.282,15.503,5.147,22.893,8.202c7.132,2.967,7.857,10.421,21.954,10.421c14.114,0,14.842-7.454,21.974-10.421
		c7.368-3.055,13.047-0.728,22.893-8.202c9.823-7.452,5.127-15.503,8.179-22.871c2.968-7.132,10.637-9.503,10.421-21.975
		C340.19,398.71,332.972,396.361,330.004,389.229z M263.419,363.389c0.405-1.11,1.623-1.687,2.732-1.281l9.291,3.331
		c1.11,0.406,1.688,1.624,1.301,2.734c-0.405,1.111-1.623,1.688-2.732,1.281l-9.311-3.331
		C263.59,365.716,263.012,364.499,263.419,363.389z M240.163,371.334c0.749-0.919,2.094-1.068,3.011-0.321l7.709,6.172
		c0.918,0.727,1.068,2.071,0.32,2.989c-0.726,0.919-2.07,1.067-2.989,0.342l-7.709-6.172
		C239.586,373.597,239.437,372.251,240.163,371.334z M238.026,395.251l8.481-5.082c1.002-0.62,2.327-0.3,2.923,0.726
		c0.62,1.003,0.28,2.306-0.726,2.926l-8.456,5.104c-1.024,0.598-2.328,0.277-2.947-0.727
		C236.703,397.173,237.024,395.87,238.026,395.251z M236.939,432.901c-0.491-1.068-0.021-2.329,1.046-2.82l8.969-4.143
		c1.068-0.491,2.349-0.021,2.841,1.047c0.489,1.067,0.021,2.327-1.048,2.818l-8.969,4.143
		C238.711,434.438,237.451,433.989,236.939,432.901z M250.668,449.301l-9.863,0.192c-1.198,0.021-2.159-0.896-2.18-2.094
		c-0.021-1.174,0.917-2.155,2.094-2.155l9.863-0.214c1.177-0.021,2.159,0.918,2.179,2.092
		C252.784,448.298,251.845,449.28,250.668,449.301z M291.948,458.782l-8.775,4.527c-1.046,0.557-2.327,0.129-2.86-0.918
		c-0.557-1.046-0.129-2.328,0.917-2.882l8.754-4.528c1.048-0.533,2.35-0.127,2.885,0.918
		C293.402,456.946,292.997,458.228,291.948,458.782z M296.006,430.231c-2.37,2.37-6.576,2.178-9.715,3.48
		c-3.033,1.26-5.853,4.42-9.333,4.42c-3.46,0-6.301-3.16-9.312-4.42c-3.138-1.303-7.368-1.11-9.717-3.48
		c-2.371-2.371-2.177-6.578-3.481-9.717c-1.258-3.033-4.42-5.852-4.42-9.333c0-3.458,3.162-6.3,4.42-9.311
		c1.304-3.139,1.11-7.368,3.481-9.716c2.349-2.372,6.579-2.179,9.717-3.482c3.011-1.26,5.852-4.42,9.312-4.42
		c3.48,0,6.3,3.16,9.333,4.42c3.139,1.304,7.345,1.11,9.715,3.482c2.373,2.348,2.178,6.577,3.481,9.716
		c1.26,3.011,4.422,5.853,4.422,9.311c0,3.481-3.163,6.3-4.422,9.333C298.185,423.653,298.379,427.86,296.006,430.231z
		 M316.23,447.423c-0.404,1.109-1.622,1.687-2.734,1.302l-9.289-3.353c-1.11-0.385-1.687-1.624-1.303-2.734
		c0.407-1.11,1.624-1.688,2.734-1.28l9.312,3.331C316.059,445.095,316.637,446.312,316.23,447.423z M319.091,397.813
		c-0.404,1.111-1.623,1.688-2.731,1.281l-9.312-3.331c-1.11-0.405-1.687-1.624-1.281-2.733c0.383-1.111,1.623-1.688,2.732-1.281
		l9.29,3.331C318.899,395.486,319.477,396.703,319.091,397.813z M327.784,416.456l-5.637-8.113
		c-0.684-0.962-0.427-2.286,0.533-2.969c0.982-0.662,2.307-0.428,2.968,0.533l5.637,8.115c0.663,0.982,0.428,2.307-0.533,2.989
		C329.768,417.674,328.445,417.438,327.784,416.456z"/>
	<path fill="#A5F3C9" d="M185.08,389.229c-1.516-3.652-1.152-7.027-1.602-10.593c-1.899,0.876-4.058,1.239-6.278,0.897
		c-2.433-0.363-4.526-1.517-6.128-3.141c-0.065,0.064-0.128,0.129-0.193,0.172l1.474,3.779c0.427,1.11-0.126,2.35-1.217,2.777
		c-1.109,0.426-2.329-0.129-2.776-1.219l-1.154-2.989c-1.708,0.662-3.586,0.919-5.531,0.62c-3.459-0.535-6.299-2.606-7.9-5.425
		c-0.127,0.257-0.342,0.47-0.599,0.64l-8.177,5.553c-0.985,0.662-2.306,0.406-2.969-0.576c-0.662-0.982-0.405-2.307,0.577-2.968
		l6.256-4.229c-0.875,0.106-1.793,0.085-2.733-0.064c-5.958-0.897-10.059-6.385-9.247-12.322c-0.918,0.108-1.858,0.128-2.797-0.021
		c-5.681-0.855-9.717-5.915-9.353-11.554c-7.604,2.028-8.99,7.218-14.65,9.567c-7.389,3.074-12.707-2.541-22.892,8.199
		c-10.165,10.764-5.127,15.505-8.201,22.895c-2.946,7.132-10.828,8.264-10.399,21.952c0.427,13.688,7.453,14.843,10.399,21.975
		c3.074,7.368,1.024,15.61,8.201,22.871c7.173,7.282,15.503,5.147,22.892,8.202c7.132,2.967,7.857,10.421,21.954,10.421
		c14.114,0,14.842-7.454,21.974-10.421c7.368-3.055,13.048-0.728,22.893-8.202c9.824-7.452,5.127-15.503,8.179-22.871
		c2.968-7.132,10.637-9.503,10.421-21.975C195.265,398.71,188.047,396.361,185.08,389.229z M118.495,363.389
		c0.405-1.11,1.623-1.687,2.732-1.281l9.291,3.331c1.11,0.406,1.688,1.624,1.301,2.734c-0.405,1.111-1.622,1.688-2.732,1.281
		l-9.312-3.331C118.666,365.716,118.088,364.499,118.495,363.389z M95.238,371.334c0.749-0.919,2.094-1.068,3.011-0.321l7.709,6.172
		c0.918,0.727,1.068,2.071,0.32,2.989c-0.727,0.919-2.071,1.067-2.989,0.342l-7.709-6.172
		C94.662,373.597,94.512,372.251,95.238,371.334z M93.102,395.251l8.481-5.082c1.002-0.62,2.327-0.3,2.923,0.726
		c0.619,1.003,0.28,2.306-0.727,2.926l-8.455,5.104c-1.025,0.598-2.328,0.277-2.948-0.727
		C91.778,397.173,92.099,395.87,93.102,395.251z M90.477,418.4c-0.771,0.918-2.115,1.046-3.012,0.277l-7.601-6.3
		c-0.919-0.748-1.027-2.094-0.279-3.011c0.748-0.897,2.094-1.024,2.99-0.278l7.625,6.301
		C91.096,416.157,91.223,417.503,90.477,418.4z M92.014,432.901c-0.49-1.068-0.021-2.329,1.046-2.82l8.969-4.143
		c1.069-0.491,2.35-0.021,2.841,1.047c0.489,1.067,0.021,2.327-1.048,2.818l-8.969,4.143
		C93.787,434.438,92.526,433.989,92.014,432.901z M105.744,449.301l-9.863,0.192c-1.198,0.021-2.159-0.896-2.18-2.094
		c-0.021-1.174,0.917-2.155,2.094-2.155l9.864-0.214c1.177-0.021,2.159,0.918,2.179,2.092
		C107.859,448.298,106.921,449.28,105.744,449.301z M129.94,447.06l-6.298,7.602c-0.749,0.918-2.094,1.047-3.012,0.278
		c-0.896-0.748-1.025-2.094-0.277-2.99l6.299-7.603c0.768-0.918,2.114-1.047,3.011-0.299
		C130.583,444.815,130.71,446.162,129.94,447.06z M147.024,458.782l-8.776,4.527c-1.046,0.557-2.327,0.129-2.86-0.918
		c-0.557-1.046-0.13-2.328,0.917-2.882l8.754-4.528c1.048-0.533,2.35-0.127,2.885,0.918
		C148.478,456.946,148.072,458.228,147.024,458.782z M151.082,430.231c-2.371,2.37-6.576,2.178-9.715,3.48
		c-3.033,1.26-5.852,4.42-9.333,4.42c-3.46,0-6.301-3.16-9.312-4.42c-3.138-1.303-7.368-1.11-9.716-3.48
		c-2.371-2.371-2.177-6.578-3.481-9.717c-1.258-3.033-4.42-5.852-4.42-9.333c0-3.458,3.163-6.3,4.42-9.311
		c1.305-3.139,1.11-7.368,3.481-9.716c2.348-2.372,6.578-2.179,9.716-3.482c3.011-1.26,5.852-4.42,9.312-4.42
		c3.48,0,6.3,3.16,9.333,4.42c3.139,1.304,7.345,1.11,9.715,3.482c2.373,2.348,2.178,6.577,3.481,9.716
		c1.26,3.011,4.422,5.853,4.422,9.311c0,3.481-3.162,6.3-4.422,9.333C153.26,423.653,153.455,427.86,151.082,430.231z
		 M171.306,447.423c-0.405,1.109-1.622,1.687-2.734,1.302l-9.289-3.353c-1.11-0.385-1.687-1.624-1.303-2.734
		c0.407-1.11,1.624-1.688,2.733-1.28l9.312,3.331C171.135,445.095,171.712,446.312,171.306,447.423z M172.887,425.896l-9.183,3.652
		c-1.111,0.428-2.351-0.106-2.775-1.197c-0.45-1.088,0.085-2.326,1.195-2.775l9.182-3.651c1.089-0.428,2.327,0.106,2.754,1.217
		C174.509,424.23,173.975,425.468,172.887,425.896z M174.167,397.813c-0.404,1.111-1.623,1.688-2.731,1.281l-9.311-3.331
		c-1.11-0.405-1.687-1.624-1.281-2.733c0.384-1.111,1.623-1.688,2.732-1.281l9.29,3.331
		C173.975,395.486,174.552,396.703,174.167,397.813z M182.859,416.456l-5.637-8.113c-0.684-0.962-0.427-2.286,0.533-2.969
		c0.982-0.662,2.307-0.428,2.968,0.533l5.637,8.115c0.663,0.982,0.427,2.307-0.533,2.989
		C184.844,417.674,183.521,417.438,182.859,416.456z"/>
	<path fill="#EAD4A7" d="M711.733,138.426c-36.583,0-66.239,29.655-66.239,66.242c0,36.583,29.656,66.238,66.239,66.238
		c36.582,0,66.237-29.655,66.237-66.238C777.971,168.082,748.315,138.426,711.733,138.426z M711.733,226.004
		c-11.787,0-21.335-9.552-21.335-21.334c0-11.787,9.548-21.339,21.335-21.339c11.778,0,21.335,9.553,21.335,21.339
		C733.068,216.452,723.512,226.004,711.733,226.004z"/>
	<path fill="#FF8ABA" d="M619.858,182.7c-3.066-7.379,1.464-13.615-8.192-22.885c-9.651-9.268-15.508-5.13-22.891-8.195
		c-7.124-2.964-7.481-10.411-21.96-10.411c-14.478,0-14.835,7.447-21.964,10.411c-7.378,3.065-12.7-2.558-22.882,8.195
		c-10.181,10.753-5.13,15.506-8.2,22.887c-2.962,7.126-10.828,8.276-10.411,21.965c0.421,13.687,7.449,14.838,10.411,21.964
		c3.07,7.378,1.021,15.61,8.195,22.887c7.175,7.275,15.509,5.127,22.887,8.196c7.129,2.963,7.854,10.41,21.964,10.41
		c14.11,0,14.836-7.447,21.96-10.41c7.383-3.069,13.052-0.727,22.891-8.196c9.839-7.469,5.126-15.509,8.192-22.885
		c2.961-7.128,10.636-9.491,10.409-21.966C630.043,192.19,622.819,189.828,619.858,182.7z M589.335,213.993
		c-1.302,3.13-1.118,7.352-3.479,9.714c-2.364,2.363-6.585,2.178-9.718,3.479c-3.023,1.258-5.848,4.419-9.322,4.419
		c-3.474,0-6.298-3.161-9.326-4.419c-3.132-1.301-7.353-1.115-9.714-3.479c-2.364-2.362-2.177-6.584-3.479-9.716
		c-1.26-3.023-4.421-5.848-4.421-9.324c0-3.475,3.161-6.301,4.421-9.328c1.302-3.133,1.114-7.352,3.479-9.716
		c2.361-2.363,6.582-2.178,9.714-3.479c3.028-1.258,5.853-4.419,9.326-4.419c3.475,0,6.299,3.161,9.322,4.419
		c3.133,1.302,7.354,1.116,9.718,3.479c2.361,2.362,2.178,6.583,3.479,9.716c1.255,3.026,4.417,5.853,4.417,9.328
		C593.752,208.144,590.59,210.968,589.335,213.993z"/>
	<path fill="#FCEA92" d="M474.936,182.7c-3.065-7.379,1.46-13.615-8.192-22.885c-9.654-9.268-15.512-5.13-22.89-8.195
		c-7.128-2.964-7.486-10.411-21.96-10.411c-14.478,0-14.832,7.447-21.96,10.411c-7.379,3.065-12.705-2.558-22.887,8.195
		s-5.13,15.506-8.2,22.887c-2.962,7.126-10.828,8.276-10.406,21.965c0.417,13.687,7.444,14.838,10.406,21.964
		c3.07,7.378,1.022,15.61,8.196,22.887c7.175,7.275,15.512,5.127,22.891,8.196c7.124,2.963,7.85,10.41,21.96,10.41
		c14.106,0,14.833-7.447,21.96-10.41c7.378-3.069,13.047-0.727,22.886-8.196c9.839-7.469,5.131-15.509,8.196-22.885
		c2.962-7.128,10.632-9.491,10.406-21.966C485.116,192.19,477.897,189.828,474.936,182.7z M408.346,156.865
		c0.4-1.11,1.622-1.688,2.731-1.289l9.297,3.337c1.113,0.398,1.689,1.622,1.289,2.732c-0.396,1.108-1.618,1.686-2.731,1.288
		l-9.299-3.337C408.525,159.198,407.95,157.976,408.346,156.865z M382.24,191.667c-0.609-1.012-0.284-2.322,0.726-2.932l8.463-5.098
		c1.009-0.608,2.322-0.283,2.932,0.729c0.61,1.009,0.284,2.321-0.729,2.932l-8.459,5.095
		C384.159,193.001,382.849,192.676,382.24,191.667z M395.603,242.788l-9.877,0.194c-1.18,0.021-2.156-0.917-2.177-2.094
		c-0.021-1.18,0.913-2.155,2.094-2.176l9.872-0.196c1.181-0.026,2.157,0.916,2.182,2.093
		C397.718,241.787,396.78,242.763,395.603,242.788z M440.93,223.707c-2.36,2.363-6.581,2.178-9.71,3.479
		c-3.024,1.258-5.852,4.419-9.326,4.419s-6.299-3.161-9.322-4.419c-3.132-1.301-7.354-1.115-9.719-3.479
		c-2.36-2.362-2.177-6.584-3.479-9.716c-1.256-3.023-4.417-5.848-4.417-9.324c0-3.475,3.161-6.301,4.417-9.328
		c1.302-3.133,1.118-7.352,3.479-9.716c2.365-2.363,6.587-2.178,9.719-3.479c3.023-1.258,5.848-4.419,9.322-4.419
		s6.298,3.161,9.326,4.419c3.129,1.302,7.35,1.116,9.71,3.479c2.364,2.362,2.178,6.583,3.479,9.716
		c1.26,3.026,4.422,5.853,4.422,9.328c0,3.477-3.162,6.301-4.422,9.326C443.107,217.123,443.294,221.345,440.93,223.707z
		 M461.155,240.905c-0.396,1.11-1.619,1.688-2.733,1.289l-9.297-3.335c-1.109-0.398-1.684-1.622-1.288-2.733
		c0.4-1.108,1.622-1.688,2.732-1.289l9.297,3.338C460.979,238.573,461.556,239.798,461.155,240.905z M464.008,191.286
		c-0.401,1.108-1.622,1.686-2.732,1.289l-9.297-3.338c-1.113-0.4-1.689-1.623-1.288-2.731c0.396-1.109,1.618-1.688,2.731-1.289
		l9.297,3.337C463.828,188.952,464.404,190.173,464.008,191.286z"/>
	<path fill="#78DDA0" d="M330.014,182.7c-3.064-7.379,1.461-13.615-8.191-22.885c-9.655-9.268-15.511-5.13-22.89-8.195
		c-7.127-2.964-7.486-10.411-21.964-10.411c-14.477,0-14.832,7.447-21.96,10.411c-7.378,3.065-12.705-2.558-22.886,8.195
		s-5.13,15.506-8.2,22.887c-2.962,7.126-10.828,8.276-10.407,21.965c0.417,13.687,7.445,14.838,10.407,21.964
		c3.07,7.378,1.022,15.61,8.196,22.887c7.174,7.275,15.512,5.127,22.89,8.196c7.124,2.963,7.85,10.41,21.96,10.41
		c14.11,0,14.836-7.447,21.964-10.41c7.379-3.069,13.047-0.727,22.886-8.196c9.839-7.469,5.131-15.509,8.195-22.885
		c2.962-7.128,10.633-9.491,10.407-21.966C340.196,192.19,332.976,189.828,330.014,182.7z M310.941,163.404
		c1.097-0.425,2.335,0.119,2.761,1.221l3.578,9.205c0.426,1.1-0.121,2.338-1.217,2.763c-1.102,0.428-2.336-0.116-2.767-1.216
		l-3.574-9.207C309.293,165.071,309.84,163.834,310.941,163.404z M263.422,156.865c0.4-1.11,1.623-1.688,2.731-1.289l9.297,3.337
		c1.114,0.398,1.689,1.622,1.29,2.732c-0.396,1.108-1.619,1.686-2.731,1.288l-9.299-3.337
		C263.601,159.198,263.026,157.976,263.422,156.865z M240.177,164.808c0.739-0.92,2.082-1.068,3.003-0.329l7.708,6.175
		c0.921,0.738,1.068,2.083,0.329,3.003c-0.738,0.919-2.082,1.067-2.999,0.331l-7.708-6.177
		C239.588,167.075,239.442,165.729,240.177,164.808z M238.041,188.735l8.463-5.098c1.009-0.608,2.322-0.283,2.932,0.729
		c0.61,1.009,0.284,2.321-0.73,2.932l-8.459,5.095c-1.013,0.609-2.322,0.284-2.932-0.726
		C236.707,190.655,237.032,189.344,238.041,188.735z M236.953,226.387c-0.497-1.072-0.03-2.34,1.042-2.832l8.968-4.14
		c1.071-0.494,2.343-0.024,2.835,1.045c0.492,1.071,0.025,2.34-1.042,2.833l-8.972,4.139
		C238.717,227.927,237.445,227.459,236.953,226.387z M250.679,242.788l-9.876,0.194c-1.18,0.021-2.156-0.917-2.177-2.094
		c-0.021-1.18,0.914-2.155,2.094-2.176l9.873-0.196c1.181-0.026,2.157,0.916,2.181,2.093
		C252.794,241.787,251.855,242.763,250.679,242.788z M291.959,252.254l-8.775,4.537c-1.047,0.545-2.336,0.13-2.878-0.917
		s-0.129-2.335,0.917-2.876l8.772-4.538c1.046-0.542,2.336-0.131,2.877,0.915C293.415,250.423,293.006,251.71,291.959,252.254z
		 M296.009,223.707c-2.36,2.363-6.582,2.178-9.714,3.479c-3.023,1.258-5.852,4.419-9.326,4.419s-6.298-3.161-9.322-4.419
		c-3.132-1.301-7.354-1.115-9.718-3.479c-2.361-2.362-2.178-6.584-3.479-9.716c-1.256-3.023-4.417-5.848-4.417-9.324
		c0-3.475,3.162-6.301,4.417-9.328c1.301-3.133,1.118-7.352,3.479-9.716c2.365-2.363,6.586-2.178,9.718-3.479
		c3.023-1.258,5.847-4.419,9.322-4.419s6.298,3.161,9.326,4.419c3.133,1.302,7.354,1.116,9.714,3.479
		c2.364,2.362,2.178,6.583,3.479,9.716c1.26,3.026,4.421,5.853,4.421,9.328c0,3.477-3.161,6.301-4.421,9.326
		C298.187,217.123,298.374,221.345,296.009,223.707z M316.235,240.905c-0.396,1.11-1.619,1.688-2.733,1.289l-9.297-3.335
		c-1.11-0.398-1.684-1.622-1.288-2.733c0.4-1.108,1.622-1.688,2.732-1.289l9.296,3.338
		C316.059,238.573,316.634,239.798,316.235,240.905z M319.087,191.286c-0.401,1.108-1.622,1.686-2.732,1.289l-9.297-3.338
		c-1.114-0.4-1.689-1.623-1.289-2.731c0.396-1.109,1.619-1.688,2.731-1.289l9.297,3.337
		C318.908,188.952,319.484,190.173,319.087,191.286z M327.78,209.942l-5.632-8.116c-0.671-0.967-0.43-2.298,0.538-2.973
		c0.973-0.674,2.299-0.434,2.971,0.537l5.635,8.118c0.667,0.969,0.429,2.303-0.542,2.973
		C329.781,211.152,328.451,210.912,327.78,209.942z"/>
	<path fill="#7F6A55" d="M185.084,182.7c-3.065-7.379,1.46-13.615-8.191-22.885c-9.655-9.268-15.512-5.13-22.89-8.195
		c-7.128-2.964-7.486-10.411-21.964-10.411c-14.477,0-14.832,7.447-21.959,10.411c-7.379,3.065-12.705-2.558-22.887,8.195
		c-10.181,10.753-5.129,15.506-8.2,22.887c-2.962,7.126-10.828,8.276-10.409,21.965c0.42,13.687,7.447,14.838,10.409,21.964
		c3.07,7.378,1.022,15.61,8.196,22.887c7.174,7.275,15.511,5.127,22.89,8.196c7.124,2.963,7.85,10.41,21.959,10.41
		c14.11,0,14.836-7.447,21.964-10.41c7.378-3.069,13.047-0.727,22.886-8.196c9.839-7.469,5.13-15.509,8.195-22.885
		c2.962-7.128,10.632-9.491,10.407-21.966C195.266,192.19,188.046,189.828,185.084,182.7z M166.011,163.404
		c1.097-0.425,2.335,0.119,2.762,1.221l3.578,9.205c0.426,1.1-0.121,2.338-1.218,2.763c-1.102,0.428-2.335-0.116-2.766-1.216
		l-3.575-9.207C164.363,165.071,164.909,163.834,166.011,163.404z M142.599,170.233l8.18-5.538c0.976-0.66,2.302-0.404,2.965,0.573
		c0.66,0.977,0.405,2.304-0.571,2.964l-8.18,5.537c-0.98,0.661-2.306,0.404-2.966-0.571
		C141.364,172.222,141.619,170.893,142.599,170.233z M118.492,156.865c0.4-1.11,1.622-1.688,2.731-1.289l9.297,3.337
		c1.113,0.398,1.689,1.622,1.289,2.732c-0.396,1.108-1.619,1.686-2.731,1.288l-9.298-3.337
		C118.67,159.198,118.095,157.976,118.492,156.865z M95.247,164.808c0.738-0.92,2.081-1.068,3.003-0.329l7.708,6.175
		c0.921,0.738,1.067,2.083,0.329,3.003c-0.738,0.919-2.082,1.067-2.999,0.331l-7.708-6.177
		C94.658,167.075,94.512,165.729,95.247,164.808z M93.11,188.735l8.464-5.098c1.009-0.608,2.322-0.283,2.932,0.729
		c0.609,1.009,0.284,2.321-0.73,2.932l-8.459,5.095c-1.012,0.609-2.322,0.284-2.932-0.726
		C91.776,190.655,92.102,189.344,93.11,188.735z M90.466,211.881c-0.75,0.908-2.097,1.036-3.002,0.281l-7.604-6.303
		c-0.91-0.755-1.034-2.1-0.284-3.008c0.755-0.908,2.098-1.036,3.007-0.28l7.604,6.302C91.096,209.628,91.222,210.974,90.466,211.881
		z M92.022,226.387c-0.497-1.072-0.029-2.34,1.043-2.832l8.968-4.14c1.071-0.494,2.343-0.024,2.835,1.045
		c0.492,1.071,0.026,2.34-1.042,2.833l-8.971,4.139C93.787,227.927,92.515,227.459,92.022,226.387z M105.749,242.788l-9.876,0.194
		c-1.18,0.021-2.157-0.917-2.178-2.094c-0.021-1.18,0.914-2.155,2.094-2.176l9.873-0.196c1.181-0.026,2.157,0.916,2.181,2.093
		C107.864,241.787,106.925,242.763,105.749,242.788z M129.949,240.543l-6.307,7.604c-0.755,0.907-2.098,1.032-3.008,0.279
		c-0.909-0.753-1.034-2.098-0.279-3.005l6.303-7.604c0.754-0.909,2.098-1.032,3.007-0.28
		C130.574,238.291,130.7,239.635,129.949,240.543z M147.029,252.254l-8.775,4.537c-1.047,0.545-2.335,0.13-2.878-0.917
		c-0.542-1.047-0.128-2.335,0.917-2.876l8.773-4.538c1.046-0.542,2.335-0.131,2.877,0.915
		C148.485,250.423,148.076,251.71,147.029,252.254z M151.079,223.707c-2.361,2.363-6.582,2.178-9.715,3.479
		c-3.023,1.258-5.851,4.419-9.326,4.419c-3.474,0-6.298-3.161-9.322-4.419c-3.132-1.301-7.353-1.115-9.718-3.479
		c-2.36-2.362-2.177-6.584-3.479-9.716c-1.256-3.023-4.417-5.848-4.417-9.324c0-3.475,3.161-6.301,4.417-9.328
		c1.301-3.133,1.118-7.352,3.479-9.716c2.365-2.363,6.586-2.178,9.718-3.479c3.023-1.258,5.848-4.419,9.322-4.419
		c3.475,0,6.298,3.161,9.326,4.419c3.133,1.302,7.354,1.116,9.715,3.479c2.364,2.362,2.177,6.583,3.479,9.716
		c1.26,3.026,4.421,5.853,4.421,9.328c0,3.477-3.162,6.301-4.421,9.326C153.256,217.123,153.443,221.345,151.079,223.707z
		 M171.304,240.905c-0.396,1.11-1.619,1.688-2.733,1.289l-9.297-3.335c-1.11-0.398-1.684-1.622-1.289-2.733
		c0.4-1.108,1.622-1.688,2.732-1.289l9.297,3.338C171.128,238.573,171.704,239.798,171.304,240.905z M172.876,219.385l-9.18,3.643
		c-1.101,0.434-2.34-0.101-2.774-1.197c-0.438-1.097,0.097-2.337,1.197-2.771l9.181-3.645c1.097-0.437,2.335,0.1,2.77,1.196
		C174.502,217.707,173.969,218.945,172.876,219.385z M174.157,191.286c-0.401,1.108-1.622,1.686-2.732,1.289l-9.297-3.338
		c-1.113-0.4-1.689-1.623-1.288-2.731c0.396-1.109,1.618-1.688,2.731-1.289l9.297,3.337
		C173.978,188.952,174.553,190.173,174.157,191.286z M182.85,209.942l-5.632-8.116c-0.671-0.967-0.43-2.298,0.538-2.973
		c0.972-0.674,2.298-0.434,2.97,0.537l5.635,8.118c0.667,0.969,0.429,2.303-0.542,2.973
		C184.851,211.152,183.521,210.912,182.85,209.942z"/>
</g>
<g id="Watermark" opacity="0.7">
</g>
<g id="Label_Template" display="none">
</g>
</svg>
